<?xml version="1.0" standalone="no"?>
<!DOCTYPE svg PUBLIC "-//W3C//DTD SVG 20010904//EN"
 "http://www.w3.org/TR/2001/REC-SVG-20010904/DTD/svg10.dtd">
<svg version="1.0" xmlns="http://www.w3.org/2000/svg"
 width="300.000000pt" height="313.000000pt" viewBox="0 0 300.000000 313.000000"
 preserveAspectRatio="xMidYMid meet">
<metadata>
Created by potrace 1.10, written by Peter Selinger 2001-2011
</metadata>
<g transform="translate(0.000000,313.000000) scale(0.100000,-0.100000)"
fill="#000000" stroke="none">
<path d="M1430 3089 c-133 -6 -174 -12 -290 -42 -186 -49 -374 -133 -486 -218
-28 -22 -56 -39 -62 -39 -7 0 -12 -3 -12 -7 0 -5 -19 -23 -42 -42 -32 -27 -54
-37 -102 -43 -127 -17 -221 -64 -312 -155 -56 -56 -112 -159 -119 -218 -5 -41
-4 -40 21 32 11 29 20 40 30 36 8 -3 14 0 14 6 0 6 -5 11 -10 11 -7 0 -6 8 1
22 12 22 12 22 19 3 4 -11 5 -24 2 -29 -3 -5 0 -6 6 -2 7 4 12 1 12 -9 0 -11
5 -15 15 -11 19 7 19 8 -5 -48 -13 -28 -23 -79 -27 -131 -6 -86 -18 -112 -35
-81 -10 17 -33 21 -42 7 -4 -5 3 -7 14 -4 14 4 20 0 20 -12 0 -12 -6 -16 -20
-12 -11 3 -18 2 -15 -3 7 -12 45 -19 45 -9 0 5 5 9 10 9 6 0 10 -11 10 -24 0
-28 16 -43 23 -24 5 11 8 -5 7 -27 -1 -3 6 -13 15 -21 19 -20 19 -54 0 -54
-16 0 -23 11 -28 46 -3 20 -29 54 -41 54 -12 0 -5 -31 8 -36 8 -3 13 -12 12
-21 -4 -25 36 -61 57 -51 22 11 37 2 37 -22 0 -11 12 -26 30 -35 16 -8 40 -26
54 -40 14 -14 30 -25 36 -25 5 0 27 -9 47 -20 21 -11 47 -20 58 -19 14 1 10 4
-12 11 -36 12 -40 20 -19 38 8 6 14 17 12 23 -1 7 -1 9 1 5 3 -5 16 -5 29 -2
22 6 24 4 20 -27 -2 -19 -4 -46 -5 -61 -1 -21 -6 -28 -20 -28 -11 0 -23 -5
-27 -11 -5 -9 2 -10 22 -6 16 3 24 4 18 1 -7 -3 -9 -15 -6 -26 4 -17 2 -20
-12 -15 -10 4 -29 10 -42 13 -19 5 -22 9 -14 24 14 26 12 49 -5 66 -8 9 -15
12 -16 7 0 -4 -2 -18 -3 -30 -2 -13 1 -23 6 -23 4 0 8 -7 8 -15 0 -18 -8 -19
-43 -2 -30 13 -35 32 -12 41 8 3 15 10 15 16 0 6 -4 9 -8 6 -5 -3 -15 4 -22
15 -19 26 -50 25 -50 -2 0 -16 5 -20 20 -16 13 3 20 0 20 -9 0 -31 -41 -10
-98 50 -57 61 -131 186 -133 224 0 10 -3 12 -6 5 -2 -7 3 -36 12 -64 10 -29
15 -64 11 -82 -3 -18 -9 -57 -15 -87 -5 -30 -8 -161 -7 -290 3 -285 14 -353
99 -567 27 -66 116 -230 151 -276 169 -223 341 -375 530 -471 47 -24 82 -46
79 -50 -3 -3 0 -6 8 -6 8 0 36 -8 63 -18 l48 -19 -88 -63 c-49 -34 -81 -60
-71 -56 22 7 134 83 141 95 4 5 20 12 36 16 33 7 41 35 10 35 -26 0 -82 35
-72 45 4 4 -3 4 -15 1 -24 -7 -103 27 -103 44 0 6 -9 10 -20 10 -20 0 -97 48
-190 118 -312 234 -531 615 -585 1017 -10 75 -6 361 5 391 6 15 11 48 12 75 1
55 8 60 32 24 9 -13 37 -45 64 -71 34 -33 41 -44 25 -39 -30 8 -63 -11 -63
-37 0 -20 1 -20 18 -5 25 23 73 21 132 -4 33 -14 47 -25 43 -35 -3 -8 -1 -14
5 -14 6 0 18 -3 28 -7 13 -5 15 -3 9 7 -6 10 -2 12 16 7 13 -4 30 -7 37 -7 9
0 12 -24 12 -89 0 -285 112 -561 312 -769 68 -71 156 -144 213 -178 50 -29 57
-44 21 -44 -14 0 -28 -5 -32 -11 -5 -8 1 -10 19 -6 24 7 25 6 20 -36 -4 -23
-10 -44 -15 -45 -4 -2 -5 -9 -2 -14 4 -6 6 -41 5 -78 -2 -68 7 -101 48 -165
35 -53 60 -108 55 -117 -3 -4 1 -8 8 -8 8 0 21 -8 29 -17 45 -51 111 -97 130
-91 6 2 -10 18 -35 35 -63 44 -63 80 -2 73 15 -1 17 3 12 22 -4 12 -8 31 -7
41 0 19 -34 24 -45 6 -11 -18 -24 12 -17 40 5 20 3 23 -12 17 -29 -11 -38 16
-12 36 22 17 22 18 -20 18 -24 0 -43 5 -43 10 0 6 10 10 21 10 17 0 20 4 15
23 -3 12 -6 35 -6 51 0 24 -2 27 -15 16 -10 -9 -15 -9 -15 -1 0 6 -4 11 -10
11 -5 0 -10 -19 -10 -41 0 -38 2 -40 17 -28 15 12 16 12 9 -6 -18 -44 -18 -55
-2 -55 9 0 16 -8 16 -20 0 -20 76 -107 90 -103 5 1 14 -4 20 -12 10 -12 9 -15
-9 -15 -12 0 -24 -7 -28 -16 -5 -12 -12 -9 -39 17 -19 18 -34 39 -34 46 0 7
-5 13 -11 13 -6 0 -9 7 -6 15 4 8 1 17 -4 21 -18 11 -49 94 -55 150 l-7 55 39
-2 c21 -1 47 -6 57 -11 10 -6 21 -7 24 -4 9 9 -62 36 -93 36 -25 0 -26 1 -20
53 3 28 7 62 7 75 1 12 2 22 4 22 2 0 30 -13 62 -29 33 -16 71 -33 86 -36 15
-4 27 -11 27 -15 0 -14 -33 -21 -41 -9 -5 8 -8 6 -11 -7 -3 -17 -5 -16 -27 6
-13 14 -22 18 -19 10 2 -8 18 -22 36 -30 28 -13 32 -20 32 -57 0 -31 -4 -43
-17 -46 -15 -4 -14 -5 3 -6 16 -1 24 -12 33 -43 17 -57 38 -89 54 -82 11 4 13
-7 9 -51 -4 -47 -2 -54 11 -49 12 4 15 15 11 40 -4 32 2 39 28 35 4 0 -2 15
-13 34 -12 19 -26 32 -32 28 -6 -4 -7 -1 -3 6 5 7 2 18 -7 24 -20 16 -29 58
-15 74 8 10 6 13 -6 13 -20 0 -21 33 -1 50 22 18 45 5 45 -26 0 -42 32 -134
47 -134 7 0 13 -4 13 -10 0 -13 51 -58 84 -76 28 -14 100 -27 156 -28 30 -1
35 -4 35 -26 0 -23 -4 -25 -57 -28 -55 -3 -57 -2 -60 25 l-4 28 -12 -28 c-7
-16 -12 -43 -12 -62 0 -18 -6 -35 -12 -38 -10 -3 -10 -7 -1 -17 6 -7 9 -19 6
-28 -4 -10 -2 -13 5 -8 7 4 12 13 12 21 0 9 11 13 31 13 25 -1 30 -5 26 -20
-3 -10 -2 -18 3 -18 4 0 10 9 13 20 6 25 49 23 59 -3 4 -9 12 -17 18 -17 7 0
8 6 0 19 -7 14 -6 21 3 24 6 3 -15 6 -48 7 -95 3 -100 4 -100 20 0 10 13 16
42 18 29 2 43 8 46 20 4 16 5 15 6 0 1 -24 41 -24 41 -1 0 15 2 15 14 -3 8
-11 16 -30 18 -43 2 -16 11 -25 26 -27 27 -5 29 12 2 19 -14 4 -20 14 -20 35
0 16 -7 46 -15 65 -19 45 -19 44 6 50 12 3 22 0 26 -9 3 -8 9 -12 14 -9 4 3 6
12 3 20 -3 8 6 21 23 32 67 43 105 116 109 213 3 65 0 82 -23 130 -15 30 -33
60 -41 66 -12 8 -9 14 14 29 34 23 54 27 54 13 0 -6 -7 -7 -16 -4 -15 6 -15 4
-2 -16 44 -68 44 -66 23 -83 -19 -14 -19 -15 4 -12 20 2 26 -4 33 -33 8 -28 6
-37 -9 -48 -16 -13 -16 -14 0 -9 14 5 17 0 17 -34 0 -33 -3 -40 -15 -35 -8 3
-15 2 -15 -3 0 -10 69 -31 73 -23 2 4 0 23 -4 42 -6 31 -7 32 -8 8 0 -16 -6
-28 -12 -28 -6 0 -9 12 -7 28 2 19 9 28 26 30 12 2 22 7 22 12 0 5 6 7 14 4 8
-3 17 -1 21 5 3 7 23 9 48 6 37 -5 39 -4 20 6 -26 14 -30 29 -7 29 8 0 12 5 9
10 -4 7 -23 1 -52 -15 -49 -27 -73 -32 -73 -14 0 6 6 9 14 6 8 -3 16 -2 18 3
2 5 26 18 54 29 l52 20 6 -31 c16 -79 -2 -225 -32 -261 -9 -9 -12 -20 -9 -23
11 -11 -30 -78 -82 -134 -28 -30 -52 -58 -53 -61 -2 -4 -21 -18 -42 -33 -31
-21 -35 -26 -18 -26 12 0 46 20 75 44 45 36 65 46 111 51 31 4 56 11 56 16 0
5 7 9 15 9 16 0 67 22 190 83 349 172 665 553 755 911 16 63 20 109 18 220
l-1 141 -7 -125 c-9 -158 -45 -281 -131 -453 -107 -213 -255 -392 -436 -528
-112 -84 -270 -174 -348 -199 -22 -7 -44 -16 -50 -21 -5 -5 -18 -9 -29 -9 -11
0 -28 -7 -38 -17 -30 -27 -31 -8 -3 37 14 22 30 52 35 65 11 29 20 30 75 10
57 -20 75 -18 40 5 -16 11 -42 20 -57 20 -36 0 -35 14 2 57 17 18 30 40 30 48
0 8 5 15 10 15 6 0 10 -6 10 -13 0 -16 37 -53 45 -45 3 3 -1 18 -10 34 -30 57
-9 131 35 127 15 -1 18 0 8 3 -20 6 -23 19 -8 29 6 3 10 11 10 18 0 6 -15 -3
-32 -20 l-33 -32 -36 37 c-31 32 -35 41 -27 62 l10 25 9 -23 c12 -32 27 -27
34 10 5 23 18 40 42 56 20 12 38 21 41 18 2 -3 -13 -15 -33 -28 -21 -12 -33
-24 -26 -26 17 -6 155 100 225 172 70 73 133 156 188 249 79 136 177 457 139
457 -4 0 -11 -24 -15 -54 -10 -88 -54 -225 -107 -335 -27 -57 -52 -101 -55
-98 -3 3 12 40 34 83 60 122 97 245 117 397 3 26 10 45 14 43 4 -3 7 5 7 17
-1 17 4 21 19 19 12 -1 31 8 44 22 13 14 28 23 35 20 7 -3 11 8 11 30 0 19 -4
34 -9 33 -5 -1 -10 3 -13 10 -7 20 54 25 114 10 32 -9 64 -17 72 -19 7 -1 15
2 18 9 3 7 -10 15 -31 19 -20 3 -36 12 -36 20 0 19 21 28 31 13 7 -11 9 -10 9
4 0 9 -4 17 -9 17 -6 0 -8 9 -6 21 4 17 2 19 -11 8 -26 -21 -24 -5 4 37 l28
41 17 -23 c9 -13 17 -29 18 -36 0 -7 4 -4 9 8 4 11 5 36 0 55 l-8 34 -1 -30
c-2 -28 -3 -29 -16 -11 -12 16 -12 24 7 60 19 35 22 58 22 171 1 129 1 131
-33 200 -43 88 -133 178 -220 223 -57 28 -63 38 -23 33 6 -1 12 3 12 9 0 5 -9
10 -20 10 -21 0 -28 24 -10 35 6 3 10 12 10 18 -1 21 -40 -34 -40 -55 0 -18
-5 -20 -31 -14 -17 3 -44 6 -60 6 -21 0 -29 5 -29 18 0 26 11 34 27 20 12 -10
13 -7 8 18 l-7 29 31 -33 c16 -19 35 -31 41 -27 13 8 13 45 -1 45 -5 0 -7 -5
-4 -11 15 -23 -31 14 -54 44 -13 18 -46 50 -74 72 -27 22 -55 45 -61 50 -30
28 -118 86 -180 119 -38 20 -74 40 -80 44 -6 5 -31 16 -56 26 -25 10 -61 25
-80 33 -34 15 -111 37 -235 68 -93 22 -225 31 -395 24z m382 -58 c139 -29 369
-112 409 -147 8 -8 20 -14 25 -14 14 0 163 -103 241 -165 38 -30 57 -52 51
-56 -17 -11 -18 -38 -3 -46 8 -6 10 -15 4 -30 -6 -17 -16 -23 -40 -23 -34 0
-33 -5 -12 70 6 22 5 24 -10 12 -9 -8 -19 -22 -22 -33 -9 -28 -25 -23 -26 9
-2 26 -2 27 -6 2 -6 -30 -32 -62 -45 -54 -5 3 -7 12 -4 20 3 8 0 14 -6 14 -6
0 -4 8 5 18 24 26 23 50 -1 29 -24 -22 -43 -4 -35 34 6 34 -3 79 -18 79 -6 0
-5 -8 2 -22 9 -17 8 -28 -7 -56 -17 -32 -17 -35 -1 -47 21 -15 22 -35 1 -35
-8 0 -13 -4 -10 -9 3 -5 15 -7 26 -4 11 3 20 0 20 -6 0 -6 -9 -11 -19 -11 -22
0 -37 -17 -26 -28 4 -4 10 -1 12 6 6 17 53 16 53 -2 0 -18 -27 -29 -34 -13 -2
7 -5 5 -5 -4 -1 -24 -61 -43 -61 -19 0 5 3 9 8 7 4 -1 8 3 10 8 1 6 -4 10 -10
10 -7 1 -12 6 -11 13 2 7 -3 12 -10 13 -6 0 -20 2 -29 4 -21 4 -22 1 -6 -25
10 -16 10 -23 -5 -37 -16 -16 -18 -16 -34 1 -10 10 -12 16 -5 12 6 -4 12 -5
12 -2 0 9 -134 89 -196 117 -87 39 -204 74 -294 89 -41 7 -77 15 -80 19 -3 4
-33 12 -68 19 -35 7 -71 16 -80 19 -13 4 -14 3 -6 -6 6 -6 39 -18 75 -25 l64
-14 -100 -2 c-55 -1 -120 -3 -145 -6 -125 -14 -275 -65 -402 -138 -75 -43 -78
-43 -94 -24 -17 18 -17 19 4 34 29 20 28 32 -3 32 -14 0 -25 -4 -25 -9 0 -5 5
-9 12 -9 9 0 9 -3 0 -12 -10 -10 -15 -10 -22 2 -13 21 -24 134 -17 177 7 40
-3 36 -18 -8 -10 -28 -11 -29 -33 -14 -12 9 -22 27 -22 41 0 13 -4 24 -10 24
-5 0 -10 -13 -10 -29 0 -15 -3 -49 -6 -75 -6 -38 -10 -46 -23 -40 -9 4 -47 14
-85 24 l-69 17 31 21 c16 12 34 22 39 22 4 0 21 14 37 30 16 17 34 30 39 30 6
0 18 6 26 14 22 20 195 108 261 133 115 45 235 76 335 88 27 3 52 9 55 12 13
14 359 -6 452 -26z m-1022 -332 c0 -13 -13 -11 -38 7 -12 8 -20 20 -17 25 7
10 55 -18 55 -32z m810 -18 c0 -39 -15 -47 -41 -22 -33 31 -69 35 -98 13 -14
-11 -25 -25 -24 -30 3 -11 -8 -14 -114 -32 -88 -15 -193 -53 -290 -105 -47
-25 -87 -45 -89 -45 -2 0 -1 7 2 15 4 10 2 13 -8 10 -8 -3 -20 1 -27 9 -10 11
-6 18 17 34 83 60 246 124 392 155 107 23 117 24 203 26 l77 1 0 -29z m-800
-45 c11 -30 6 -31 -34 -6 -26 15 -36 29 -36 46 l0 25 31 -22 c17 -12 34 -31
39 -43z m890 55 c0 -5 17 -11 38 -14 20 -4 61 -14 90 -22 49 -15 52 -17 42
-38 -10 -21 -10 -21 4 -4 10 14 21 17 38 11 74 -23 203 -108 141 -92 -24 6
-31 -6 -12 -17 5 -4 18 0 28 9 17 15 20 15 42 -4 24 -21 24 -21 2 -15 -30 8
-29 3 6 -23 28 -20 29 -20 24 -1 -4 15 -2 18 11 13 19 -7 19 -9 5 -37 -9 -18
-9 -20 2 -9 20 18 29 15 29 -13 0 -14 5 -25 10 -25 6 0 10 10 10 22 0 17 3 19
12 10 8 -8 2 -21 -25 -51 -103 -114 -145 -317 -92 -445 18 -41 11 -56 -27 -56
-24 0 -26 -27 -6 -104 23 -89 23 -222 0 -296 l-18 -55 -38 70 c-22 39 -47 81
-58 94 -10 13 -18 36 -18 52 0 19 -4 27 -12 24 -7 -3 -20 8 -29 24 l-17 29 40
6 c45 7 84 42 94 83 4 15 14 36 23 46 14 17 14 21 0 46 -14 24 -14 30 -2 47
13 18 14 18 19 -4 4 -12 9 -22 13 -22 8 0 8 93 1 100 -3 3 -16 20 -29 38 l-23
33 21 20 c22 20 29 59 11 59 -5 0 -10 -4 -10 -10 0 -5 -9 -10 -21 -10 -18 0
-20 -4 -15 -25 8 -30 -4 -33 -22 -5 -17 28 -133 101 -202 128 -86 34 -147 43
-260 38 -178 -7 -307 -63 -433 -190 l-69 -69 8 44 c4 24 7 70 6 103 -1 40 3
63 13 73 20 20 19 35 -2 31 -13 -2 -23 12 -41 62 -36 101 -38 97 58 147 259
133 535 154 812 59 110 -37 249 -113 256 -138 2 -10 7 -18 11 -19 3 0 16 -2
29 -5 38 -7 24 9 -51 58 -133 87 -343 168 -436 168 -48 0 -69 10 -64 31 6 23
23 26 23 4 0 -8 7 -15 16 -15 8 0 12 5 9 10 -10 16 5 50 21 50 8 0 14 -4 14
-9z m-1220 -6 c0 -2 -12 -16 -27 -30 -25 -23 -28 -23 -35 -7 -5 13 -7 10 -7
-10 -1 -16 0 -31 2 -34 1 -5 -121 -66 -130 -65 -1 0 -17 -13 -35 -29 l-32 -29
-15 22 c-18 27 -33 37 -43 31 -13 -9 -9 -24 7 -24 8 0 15 -5 15 -11 0 -5 5 -7
11 -3 7 4 10 1 7 -7 -8 -24 -35 -22 -42 3 -5 19 -8 20 -15 8 -12 -18 2 -38 30
-42 19 -3 19 -4 -4 -35 -15 -21 -27 -29 -36 -23 -10 6 -9 10 5 19 18 10 18 10
-2 11 -28 0 -36 10 -21 28 10 13 9 15 -6 9 -17 -6 -17 -5 2 21 66 92 206 174
331 195 14 2 28 5 33 6 4 0 7 -1 7 -4z m88 -1 c12 -4 22 -11 22 -16 0 -5 -4
-6 -10 -3 -5 3 -10 -1 -10 -9 0 -8 5 -18 10 -21 6 -3 10 0 10 7 1 33 14 38 65
22 53 -15 81 -34 52 -34 -21 0 -23 -26 -2 -34 8 -3 21 4 29 15 l14 21 36 -24
c37 -24 47 -48 21 -48 -8 0 -15 6 -15 14 0 8 -7 16 -15 20 -9 3 -15 0 -15 -8
0 -8 7 -17 16 -20 13 -5 14 -9 4 -20 -9 -12 -7 -17 9 -25 25 -14 31 -14 31 2
0 6 4 18 9 25 7 12 12 12 30 1 28 -18 27 -23 -15 -56 l-36 -27 -34 37 c-19 20
-37 36 -40 36 -9 -2 -64 23 -65 30 0 3 -2 16 -5 28 -2 12 1 25 6 28 17 11 11
23 -9 18 -13 -3 -17 -12 -15 -26 2 -12 2 -17 -1 -11 -4 8 -18 8 -50 1 -49 -11
-60 -27 -20 -27 14 0 25 5 25 10 0 6 7 10 16 10 11 0 14 -5 10 -16 -4 -11 1
-18 14 -21 12 -3 19 -11 17 -17 -3 -6 -11 -9 -18 -8 -8 2 -22 5 -31 7 -9 2
-27 9 -39 15 -32 18 -106 7 -134 -20 -24 -22 -25 -50 -2 -32 7 6 34 9 61 8 39
-1 51 -5 57 -21 7 -18 8 -18 8 -2 1 26 25 15 29 -13 3 -20 1 -22 -25 -15 -34
10 -106 7 -138 -5 -27 -10 -32 -2 -40 63 -4 33 -2 37 30 48 22 8 34 19 32 28
-1 9 8 20 21 26 14 6 22 19 23 35 0 15 3 19 6 10 10 -25 32 -42 44 -34 9 5 7
11 -5 20 -10 7 -15 17 -11 23 7 13 12 13 43 5z m983 -34 l24 -19 -52 -1 c-28
0 -55 5 -58 10 -3 6 1 10 9 10 9 0 16 5 16 10 0 17 36 11 61 -10z m-1191 -110
c0 -5 -4 -10 -9 -10 -4 0 -19 -10 -32 -22 -14 -13 -29 -24 -34 -25 -6 -1 -11
-11 -13 -22 -2 -13 -8 -18 -18 -14 -10 4 -15 0 -14 -8 4 -26 0 -39 -11 -39 -6
0 -8 7 -5 18 7 16 6 16 -11 -1 -16 -16 -16 -19 -3 -28 13 -9 12 -10 -2 -5 -25
8 -65 -70 -50 -95 9 -13 7 -22 -9 -40 -13 -15 -19 -37 -19 -71 0 -37 -4 -48
-16 -48 -12 0 -15 10 -13 53 6 142 85 278 199 346 38 23 60 27 60 11z m175 0
c4 -6 -10 -9 -34 -8 -22 1 -38 5 -35 10 7 11 62 10 69 -2z m185 -20 c17 -17
35 -28 39 -25 5 2 17 -5 27 -16 18 -20 18 -21 -9 -41 -33 -24 -34 -32 -2 -66
29 -31 32 -47 9 -56 -9 -4 -14 -9 -11 -12 10 -10 78 20 73 32 -3 7 1 17 8 23
10 9 15 7 20 -6 28 -81 36 -112 36 -138 l0 -30 13 25 c7 14 11 27 8 30 -3 3
-16 35 -29 73 l-23 67 28 25 c15 13 33 25 38 25 11 0 65 -128 65 -153 0 -7 -7
-23 -16 -35 -16 -23 -6 -30 14 -10 9 9 12 3 12 -29 0 -24 -5 -43 -12 -46 -10
-3 -10 -8 -2 -17 16 -16 -7 -115 -43 -188 -31 -63 -108 -150 -169 -193 -40
-27 -44 -28 -54 -12 -8 13 -13 14 -16 6 -3 -7 -12 -13 -19 -13 -11 0 -10 9 4
43 19 43 46 52 64 21 10 -18 25 -18 44 1 19 20 9 33 -11 16 -35 -30 -50 24
-15 55 20 18 21 18 30 1 6 -10 14 -15 20 -12 5 4 14 3 21 -1 7 -5 5 -11 -7
-21 -17 -12 -17 -13 -2 -13 25 0 33 29 13 48 -15 15 -18 15 -26 2 -5 -8 -10
-10 -10 -4 0 5 5 15 12 22 9 9 9 12 -1 12 -9 0 -5 11 11 33 38 50 87 204 73
227 -9 15 -31 1 -32 -20 -1 -11 2 -18 8 -15 23 15 -8 -94 -45 -157 -33 -56
-81 -108 -99 -108 -8 0 -17 -6 -20 -14 -7 -16 -107 -67 -118 -60 -4 2 -7 17
-7 32 1 15 -7 43 -16 61 -15 28 -15 35 -4 42 19 12 25 11 32 -6 9 -24 27 -17
21 8 -4 16 2 27 21 41 l27 19 39 -43 c30 -33 37 -45 26 -51 -10 -7 -9 -9 5 -9
10 0 20 7 24 17 6 16 -13 38 -69 78 -23 16 -23 16 -3 33 11 9 26 30 33 45 10
23 18 28 40 25 16 -2 27 -9 27 -18 0 -8 7 -21 15 -28 13 -12 12 -13 -8 -8 -17
3 -22 1 -18 -9 3 -9 0 -12 -10 -8 -7 3 -14 0 -14 -6 0 -6 5 -11 10 -11 6 0 10
-5 10 -11 0 -6 -7 -9 -15 -6 -8 4 -17 1 -21 -5 -4 -7 -3 -8 5 -4 7 4 15 -2 20
-16 9 -22 10 -20 30 24 12 25 25 48 30 50 5 2 11 12 13 23 1 11 10 26 18 33
11 10 12 15 3 18 -7 3 -13 12 -13 19 0 7 -15 15 -35 17 -44 5 -46 -8 -2 -18
17 -4 26 -9 19 -11 -6 -3 -9 -10 -5 -16 4 -7 0 -8 -11 -4 -10 4 -27 7 -39 7
-21 0 -22 4 -21 78 2 83 -10 124 -51 178 l-25 32 24 15 c13 9 26 26 29 38 5
19 1 18 -28 -11 -30 -29 -35 -31 -49 -18 -8 8 -28 21 -45 28 -33 13 -35 18
-23 37 9 15 71 1 83 -18 11 -19 38 -3 32 20 -4 16 -9 18 -28 11 -18 -7 -27 -4
-42 12 -10 12 -12 18 -5 14 9 -5 15 -1 19 13 7 28 17 27 53 -9z m1966 -11 c22
-10 47 -19 55 -19 42 0 154 -108 198 -189 35 -66 61 -157 61 -215 0 -36 -18
-110 -43 -179 -22 -61 -63 -102 -148 -146 -95 -50 -94 -49 -88 -56 3 -2 31 9
63 26 32 16 61 28 63 26 7 -7 -63 -47 -82 -47 -10 0 -16 -3 -12 -6 6 -6 -59
-44 -75 -44 -5 0 -1 11 7 24 15 22 14 24 -5 29 -23 6 -27 27 -5 27 8 0 15 4
15 9 0 4 11 20 25 33 l25 26 -25 0 c-14 0 -25 -4 -25 -8 0 -18 -41 -18 -50 0
-15 28 -12 40 10 40 11 0 20 -4 20 -10 0 -5 5 -10 11 -10 6 0 8 7 5 16 -6 15
28 53 48 54 22 1 69 85 85 155 15 66 1 143 -38 200 l-29 43 27 23 c26 24 27
24 46 5 16 -17 17 -19 1 -13 -15 6 -15 2 4 -29 17 -26 20 -38 11 -47 -19 -19
-12 -27 15 -17 36 14 37 13 17 -17 -13 -19 -14 -28 -5 -31 19 -6 14 -28 -10
-40 -23 -10 -23 -11 5 -11 22 -1 27 -6 28 -28 2 -27 2 -27 6 -3 7 39 19 43 21
8 3 -41 12 -50 12 -13 0 31 12 27 17 -6 2 -12 8 -29 14 -38 8 -12 9 -5 4 29
-3 24 -10 47 -16 50 -5 4 -7 14 -3 23 3 9 2 17 -3 17 -5 0 -15 21 -22 48 -8
26 -17 49 -21 52 -8 6 -63 99 -72 123 -4 9 -12 17 -18 17 -5 0 -10 6 -10 13 0
7 -13 26 -30 42 -35 33 -40 21 -9 -19 17 -22 19 -30 9 -39 -10 -9 -11 -9 -5 1
6 12 3 12 -15 2 -20 -11 -21 -10 -16 8 5 15 1 22 -14 27 -11 3 -27 13 -36 22
-14 14 -16 14 -21 -6 -3 -11 -9 -21 -14 -21 -5 0 -4 12 1 26 13 34 13 34 -14
34 -13 0 -26 -6 -29 -12 -3 -10 -13 -11 -44 -2 -33 9 -49 7 -97 -11 -31 -12
-53 -25 -49 -30 5 -4 2 -5 -4 -1 -7 4 -13 15 -14 24 0 11 -2 12 -6 4 -2 -6 -8
-10 -13 -7 -4 3 -6 -4 -3 -15 4 -16 2 -19 -11 -14 -9 4 -16 1 -16 -6 0 -8 9
-10 25 -6 14 4 25 2 25 -4 0 -11 -2 -12 -52 -15 -29 -2 -43 4 -64 26 -35 37
-20 38 20 2 l31 -28 -29 32 c-25 28 -27 33 -12 39 9 3 22 1 30 -5 11 -9 17 -6
27 18 13 29 58 50 139 65 47 8 155 -5 196 -25z m-416 -8 c0 -5 3 -16 6 -24 7
-19 -24 -31 -43 -16 -11 10 -11 15 4 30 20 20 33 24 33 10z m-1887 -41 c3 -12
0 -20 -8 -20 -7 0 -29 -16 -49 -35 -40 -38 -51 -42 -62 -23 -5 7 11 28 40 54
30 26 46 47 41 54 -6 9 -3 9 13 1 11 -6 22 -20 25 -31z m542 14 c13 -20 14
-29 6 -37 -9 -9 -14 -8 -20 1 -5 8 -12 14 -17 14 -5 0 -8 4 -6 9 3 13 -16 11
-24 -3 -4 -6 2 -19 14 -28 15 -13 18 -20 9 -29 -16 -16 -25 -14 -32 9 -3 11
-13 20 -21 20 -8 0 -13 -4 -9 -9 3 -6 -3 -14 -12 -20 -10 -5 -14 -13 -10 -17
4 -4 14 1 22 12 13 16 16 17 24 4 7 -11 4 -21 -12 -38 l-21 -23 -18 23 c-10
13 -18 28 -18 35 0 13 104 102 121 103 4 0 14 -12 24 -26z m-427 -30 c-2 -10
5 -18 15 -20 14 -2 16 2 11 18 -5 16 -2 19 13 14 10 -3 30 -8 46 -12 20 -5 27
-12 27 -30 0 -13 5 -24 11 -24 7 0 9 9 6 21 -5 17 -3 18 11 8 43 -32 61 -53
55 -62 -3 -5 -14 1 -24 14 -10 13 -21 20 -25 16 -4 -4 1 -16 12 -27 43 -45 51
-56 63 -86 7 -17 11 -37 9 -44 -2 -7 8 -16 22 -20 23 -6 24 -6 4 -12 -11 -3
-21 -11 -22 -19 -1 -8 -4 -26 -8 -41 -4 -18 -2 -28 5 -28 6 0 11 13 11 29 0
17 5 33 10 36 23 14 8 -54 -22 -105 -45 -74 -100 -114 -178 -129 -51 -10 -64
-10 -71 0 -5 8 -3 17 4 21 7 4 9 8 5 8 -3 0 -13 3 -22 6 -12 4 -16 0 -16 -16
0 -24 -24 -23 -26 1 -1 8 -2 20 -3 27 0 6 -6 12 -12 12 -7 0 -9 -10 -7 -25 l5
-25 -40 24 c-45 26 -58 46 -32 46 12 0 16 6 12 20 -6 23 5 26 22 6 9 -11 8
-17 -4 -29 -19 -19 -19 -27 0 -27 7 0 18 7 23 15 7 13 14 13 41 4 20 -7 60 -9
102 -6 63 5 85 -2 59 -18 -5 -3 -10 -11 -10 -16 0 -6 15 -2 33 8 17 10 34 19
36 20 1 1 0 7 -4 13 -5 8 -10 9 -14 2 -4 -7 -12 -8 -21 -2 -11 7 -9 12 10 28
26 21 40 20 40 -3 0 -8 6 -12 13 -9 18 7 49 62 42 74 -10 16 -26 0 -20 -20 7
-21 -5 -32 -23 -21 -9 5 -7 17 8 46 24 47 27 131 6 178 -18 42 -61 86 -100
102 -25 11 -28 15 -14 20 20 8 14 32 -8 32 -9 0 -12 -7 -8 -19 5 -16 -1 -18
-51 -18 -71 0 -111 -17 -157 -67 -49 -55 -65 -129 -43 -193 8 -24 21 -50 28
-58 9 -12 9 -16 0 -19 -7 -3 -13 -13 -13 -24 0 -30 -14 -22 -38 20 -24 43 -26
51 -13 51 5 0 11 -9 14 -20 3 -11 10 -20 15 -20 6 0 8 9 5 20 -3 11 -8 20 -12
20 -4 0 -7 12 -6 27 0 14 -6 28 -12 30 -8 3 -13 -4 -13 -16 0 -12 6 -21 13
-21 8 0 7 -3 -3 -10 -18 -11 -18 -13 -25 42 -4 32 -1 66 10 104 14 48 18 54
31 43 13 -10 17 -10 24 2 14 21 -31 31 -47 10 -7 -9 -16 -20 -20 -26 -8 -10
-9 -14 -11 -61 -2 -21 -5 -24 -24 -18 -13 3 -24 7 -25 9 -2 1 7 29 18 64 19
55 23 61 43 55 20 -6 20 -6 2 8 -11 9 -15 18 -9 21 6 4 19 -2 29 -12 18 -17
20 -17 54 17 28 28 36 32 38 19 5 -26 24 -20 20 6 -3 18 5 25 47 39 63 22 77
22 73 2z m1970 -18 c-15 -11 -6 -12 57 -8 73 5 75 4 76 -19 1 -17 3 -19 6 -6
7 27 33 21 33 -8 0 -27 -6 -30 -42 -16 -13 5 -50 5 -83 0 -66 -9 -75 -4 -75
44 0 21 5 27 23 27 20 -1 21 -2 5 -14z m252 -17 c0 -5 -7 -9 -15 -9 -8 0 -15
-4 -15 -8 0 -5 7 -9 15 -10 8 -1 21 -3 29 -4 8 -1 12 -7 9 -15 -7 -19 24 -16
35 3 5 9 12 13 15 8 3 -5 -7 -25 -23 -44 l-28 -34 -32 27 c-17 15 -38 27 -46
27 -20 0 -17 16 7 50 20 26 49 31 49 9z m-419 -57 c-5 -2 -8 -9 -5 -17 3 -7 1
-16 -5 -20 -6 -3 -11 1 -11 11 0 10 -3 14 -7 11 -4 -4 -19 5 -35 20 -26 25
-27 28 -11 45 16 18 18 17 50 -14 19 -18 29 -34 24 -36z m-1800 26 c0 -10 2
-10 6 0 2 6 13 12 24 12 12 0 16 -5 13 -15 -7 -18 -61 -20 -66 -3 -3 8 -12 4
-26 -10 -26 -26 -38 -28 -46 -6 -5 13 -2 15 14 11 10 -3 19 -2 18 2 -2 17 4
21 32 21 17 0 30 -5 31 -12z m1929 -7 c14 -27 13 -31 -10 -31 -11 0 -20 -4
-20 -10 0 -5 -5 -10 -10 -10 -6 0 -21 -11 -34 -25 -20 -22 -25 -23 -42 -11
-16 12 -17 16 -4 32 18 21 90 74 101 74 5 0 13 -9 19 -19z m-1799 -29 c13 -11
14 -18 6 -27 -16 -17 -28 -9 -20 12 5 12 2 15 -10 10 -11 -4 -15 0 -14 13 1
19 8 18 38 -8z m1623 -34 c-3 -4 3 -11 13 -15 10 -3 29 -15 42 -25 23 -18 24
-18 62 16 21 19 50 41 66 49 34 18 114 32 112 20 -4 -22 2 -32 16 -27 12 5 13
10 4 20 -37 45 116 -15 164 -64 55 -56 99 -182 63 -182 -14 0 -26 -29 -26 -64
0 -10 -7 -24 -16 -31 -9 -6 -15 -20 -12 -31 3 -15 7 -12 26 19 12 21 22 46 22
55 0 9 5 24 11 32 15 22 0 -57 -18 -97 -18 -38 -76 -98 -116 -119 -38 -20
-120 -29 -143 -16 -16 9 -9 11 35 12 47 0 52 2 41 15 -7 9 -16 12 -19 7 -3 -6
-26 -8 -50 -6 -39 3 -43 2 -38 -16 3 -11 1 -20 -3 -20 -13 0 -25 23 -22 43 2
10 -3 17 -14 17 -11 0 -15 -6 -11 -20 6 -23 3 -24 -23 -10 -18 10 -18 11 2 33
20 22 23 23 51 9 21 -11 48 -13 98 -9 71 6 85 -2 57 -32 -11 -11 -9 -11 10 -1
18 9 22 17 18 35 -4 17 0 27 19 39 33 22 46 -1 14 -25 -13 -10 -21 -20 -17
-24 3 -3 18 6 34 20 23 22 26 29 17 45 -10 14 -8 26 8 56 33 66 19 161 -34
227 -14 17 -47 14 -47 -5 0 -5 -4 -7 -10 -3 -15 9 0 34 18 29 13 -4 13 -2 -3
10 -46 38 -135 43 -207 11 -13 -5 -18 -3 -18 9 0 20 -19 21 -26 1 -4 -8 -13
-15 -21 -15 -8 0 -12 -4 -9 -9 4 -5 0 -11 -6 -14 -7 -2 -9 -8 -5 -13 5 -5 18
3 31 19 12 15 25 24 29 21 4 -4 -9 -24 -28 -45 -59 -66 -69 -164 -25 -237 17
-28 18 -33 5 -38 -8 -4 -12 -10 -9 -15 3 -5 2 -14 -2 -20 -4 -7 -18 7 -35 35
-34 55 -38 80 -10 71 16 -5 18 -2 14 15 -7 25 -23 37 -23 16 0 -9 -5 -16 -11
-16 -8 0 -10 20 -7 63 6 73 24 115 41 98 15 -15 27 -14 27 3 0 12 -28 31 -38
26 -2 -1 -18 9 -35 22 -43 32 -68 42 -60 22 3 -8 1 -20 -5 -27 -5 -6 -15 -30
-22 -52 -7 -22 -16 -42 -20 -45 -4 -3 -4 -31 0 -64 6 -58 6 -59 -24 -73 l-31
-14 33 5 c21 4 32 1 32 -7 0 -49 106 -202 140 -202 10 0 14 -8 12 -28 -2 -18
2 -29 13 -33 24 -9 39 18 19 33 -11 8 -12 13 -4 18 8 5 7 12 -4 24 -15 16 -15
19 3 35 18 16 21 16 62 -6 33 -17 61 -22 114 -23 l72 0 16 -60 c31 -114 32
-117 11 -113 -16 3 -20 14 -22 61 l-3 57 -59 -5 c-58 -5 -59 -5 -63 22 -4 26
-5 27 -12 6 -7 -21 -35 -40 -35 -24 0 5 -15 14 -32 20 l-33 11 23 -19 c26 -23
28 -32 5 -25 -10 2 1 -5 25 -16 36 -16 42 -23 37 -40 -4 -11 -2 -20 4 -20 6 0
11 9 11 20 0 15 7 20 29 20 31 0 41 -14 41 -57 0 -25 -1 -25 -57 -18 -56 7
-164 43 -131 44 20 1 20 41 0 41 -8 0 -12 -6 -9 -14 8 -19 -13 -26 -38 -13
-11 5 -44 30 -74 56 -44 37 -63 64 -100 141 -44 91 -46 99 -46 187 0 60 4 96
13 105 6 6 12 23 12 35 0 26 20 70 53 116 l19 28 29 -27 c15 -15 26 -31 23
-36z m-2070 11 c-8 -17 -18 -28 -21 -25 -9 8 18 66 28 60 5 -3 2 -19 -7 -35z
m220 9 c-3 -4 -11 -5 -18 -2 -8 3 -17 1 -21 -5 -3 -6 -1 -11 5 -11 6 0 8 -4 5
-10 -3 -5 0 -20 7 -32 7 -13 11 -27 9 -33 -2 -5 -4 -28 -5 -49 -1 -22 -6 -41
-13 -43 -17 -6 -25 48 -15 94 8 33 6 44 -6 57 -14 14 -14 18 7 40 18 19 26 22
36 13 7 -7 11 -15 9 -19z m162 6 c43 -20 68 -54 53 -69 -7 -7 -14 -5 -23 8 -7
9 -19 17 -26 17 -7 0 -10 7 -6 15 4 12 -3 13 -39 8 -31 -4 -45 -2 -45 6 0 6
-9 2 -19 -8 -11 -11 -28 -18 -38 -16 -10 2 -22 4 -27 4 -14 1 3 17 39 35 39
20 88 20 131 0z m173 -29 c12 -25 21 -55 21 -67 -1 -15 -6 -7 -17 22 -8 25
-21 52 -29 61 -16 18 -18 29 -5 29 5 0 18 -20 30 -45z m-74 -15 c-3 -4 1 -11
7 -13 10 -4 9 -8 -2 -16 -13 -9 -8 -15 11 -13 3 1 6 -5 6 -13 0 -8 -4 -12 -9
-9 -4 3 -8 0 -8 -5 0 -6 5 -11 11 -11 8 0 8 -5 -1 -15 -9 -10 -9 -15 -1 -15 6
0 11 -7 11 -15 0 -9 -6 -12 -15 -9 -9 4 -15 19 -15 39 0 19 -4 45 -10 59 -10
28 -3 59 11 50 5 -3 7 -9 4 -14z m-118 -3 c4 -8 16 -16 25 -20 22 -8 33 -70
19 -105 -13 -32 -51 -61 -51 -40 -1 8 -6 6 -14 -4 -17 -23 -40 -23 -77 -1 -22
13 -27 22 -23 40 5 17 2 23 -10 23 -9 0 -16 8 -16 20 0 11 4 20 10 20 5 0 7 7
4 15 -4 8 -1 15 5 15 6 0 11 -8 11 -17 0 -14 2 -15 13 -4 10 11 10 14 0 18 -7
3 -13 11 -13 18 0 23 22 29 36 11 10 -15 16 -16 35 -5 23 12 23 12 4 20 -17 7
-16 8 7 8 15 1 31 -5 35 -12z m1993 3 c0 -5 5 -10 11 -10 5 0 8 4 5 9 -4 5 3
7 14 4 11 -3 20 -11 20 -19 0 -19 -60 -13 -60 6 -1 13 -2 13 -13 -1 -21 -27
-52 -40 -67 -26 -10 10 -12 9 -7 -5 7 -21 -3 -31 -18 -18 -9 7 -11 1 -10 -26
2 -20 7 -39 11 -43 13 -9 12 -81 0 -81 -6 0 -5 -4 2 -9 10 -6 10 -10 -2 -20
-13 -11 -16 -9 -22 14 -3 14 -4 45 -1 68 3 22 1 49 -4 59 -12 23 1 49 38 73
18 12 28 14 31 7 2 -7 8 -12 14 -12 6 0 8 6 5 14 -5 13 0 16 46 25 4 0 7 -3 7
-9z m-2187 -31 c-6 -21 -29 -36 -39 -26 -12 11 8 47 26 47 13 0 17 -5 13 -21z
m1167 16 c0 -3 -11 -23 -24 -44 -22 -34 -30 -39 -75 -45 -66 -9 -193 -75 -252
-130 -95 -91 -148 -185 -174 -311 -20 -98 -19 -146 5 -241 20 -75 20 -81 4
-116 -9 -21 -20 -38 -25 -38 -8 0 -41 99 -60 179 -25 112 7 307 69 420 59 108
203 233 322 279 83 33 210 61 210 47z m160 -15 c46 -10 116 -35 155 -55 82
-41 168 -111 158 -128 -3 -7 -2 -9 2 -4 11 10 65 -42 65 -62 -1 -14 -3 -13
-14 2 -20 25 -26 21 -26 -18 0 -19 -3 -35 -7 -34 -5 0 -22 19 -38 42 -63 86
-206 171 -311 185 -51 7 -56 10 -80 50 -30 51 -30 51 96 22z m-100 -59 c0 -4
-13 -6 -30 -3 -17 2 -30 0 -30 -6 0 -6 12 -12 27 -14 23 -3 29 -10 39 -50 6
-25 17 -115 25 -200 11 -131 16 -157 35 -183 90 -119 85 -253 -12 -372 -34
-42 -37 -43 -94 -43 -54 0 -60 2 -90 37 -82 93 -104 214 -56 315 14 30 35 63
46 73 15 14 20 31 20 69 0 56 27 303 35 316 2 4 6 23 9 43 2 19 12 47 22 61
l17 27 18 -31 c11 -17 19 -34 19 -39z m-934 34 c13 -52 -22 -142 -52 -131 -8
3 -11 0 -7 -10 9 -24 -99 -59 -120 -38 -3 3 -3 12 0 20 6 16 49 19 58 4 4 -6
11 -8 16 -4 5 3 7 10 3 15 -3 5 8 14 25 20 19 7 31 18 31 28 0 10 9 26 20 36
26 23 25 39 -2 59 -18 12 -19 14 -4 9 13 -4 17 -3 12 5 -4 7 -3 12 3 12 6 0
13 -11 17 -25z m1657 5 c5 -4 -1 -25 -12 -46 -12 -21 -18 -47 -15 -56 4 -15 0
-18 -25 -18 -31 0 -49 14 -31 25 9 6 32 77 33 103 0 12 34 8 50 -8z m215 -7
c-4 -21 -53 -47 -69 -38 -13 8 7 34 36 45 31 13 37 12 33 -7z m122 -13 c24
-17 28 -18 26 -3 0 9 5 18 12 20 6 3 12 0 12 -6 0 -6 -4 -11 -9 -11 -5 0 -8
-11 -7 -24 4 -34 -17 -39 -49 -12 -20 18 -24 25 -14 30 8 3 -2 3 -21 0 -19 -4
-36 -10 -38 -15 -8 -19 -18 -7 -20 22 l-3 32 42 -7 c23 -4 54 -15 69 -26z
m-2309 -38 c-6 -2 -11 -13 -11 -24 0 -17 3 -18 15 -8 9 8 15 8 15 2 0 -6 -6
-12 -12 -15 -10 -3 -10 -8 1 -18 9 -9 11 -9 7 -1 -4 6 -3 12 3 12 14 0 25 -40
13 -52 -13 -13 -52 59 -52 95 0 31 23 56 29 30 2 -9 -2 -19 -8 -21z m-104 -23
c2 -19 10 -49 19 -67 9 -18 13 -40 10 -48 -3 -9 -1 -12 4 -9 9 6 76 -54 68
-60 -31 -25 -47 -23 -76 9 -17 19 -33 44 -37 55 -7 22 -21 26 -43 12 -12 -7
-12 -12 0 -32 25 -45 50 -68 67 -62 14 5 14 4 -1 -12 -16 -17 -16 -19 10 -32
25 -13 28 -12 57 23 l30 36 45 -23 c31 -17 66 -25 115 -27 l70 -4 18 -59 c10
-33 15 -64 12 -70 -4 -5 -20 -9 -36 -9 -24 0 -30 4 -27 18 2 9 13 18 25 20 15
2 19 8 16 22 -4 15 -16 20 -61 22 -50 3 -57 6 -63 28 l-7 25 -7 -22 c-8 -26
-37 -30 -55 -8 -7 8 -16 13 -20 10 -5 -3 -15 2 -23 10 -9 8 -20 15 -25 15 -13
0 -22 -39 -11 -46 5 -3 8 -2 7 3 -3 8 5 13 20 13 7 0 32 -42 32 -54 0 -2 -7
-7 -16 -10 -26 -10 -134 63 -134 91 0 7 -4 13 -10 13 -23 0 -102 161 -86 177
2 2 15 6 30 9 19 3 26 0 26 -11 0 -8 -4 -15 -10 -15 -5 0 -10 -8 -10 -17 1
-16 2 -16 11 1 9 15 13 16 21 5 7 -10 8 -6 4 13 -4 19 -1 30 11 37 17 10 17
10 1 11 -23 0 -31 16 -24 45 10 38 48 19 53 -26z m2479 35 c-3 -8 -2 -12 3 -9
5 3 13 0 17 -6 3 -6 0 -15 -7 -20 -11 -7 -11 -9 -1 -9 7 0 10 -4 7 -10 -3 -5
-10 -10 -15 -10 -11 0 -23 56 -15 70 10 16 18 12 11 -6z m-157 -15 c25 25 39
27 47 6 4 -8 12 -15 20 -15 7 0 18 -18 25 -39 10 -34 9 -44 -8 -73 -10 -18
-26 -33 -35 -33 -8 0 -23 -7 -33 -15 -15 -12 -21 -12 -53 6 -28 15 -36 25 -35
42 2 14 -3 22 -12 22 -18 0 -20 40 -2 41 9 0 9 2 -1 6 -6 2 -10 9 -6 14 9 15
22 10 27 -8 4 -14 5 -12 6 5 0 12 -4 22 -11 22 -6 0 -3 9 7 20 l19 21 12 -22
11 -22 22 22z m-155 3 c9 -15 -6 -52 -20 -52 -15 0 -18 18 -8 44 7 17 20 21
28 8z m-934 -12 c0 -6 -15 -34 -34 -63 -74 -116 -93 -147 -136 -225 -26 -48
-50 -80 -57 -77 -7 2 -15 0 -18 -5 -3 -4 0 -10 7 -12 24 -8 -5 -28 -40 -28
-41 1 -63 13 -81 48 -11 21 -10 22 36 24 l48 1 -48 6 -48 6 45 24 c39 22 49
23 80 14 20 -6 36 -8 36 -3 0 13 -59 33 -81 27 -12 -3 -22 0 -26 8 -2 8 -13
17 -24 20 -10 4 -19 10 -19 13 0 15 94 103 146 137 29 19 85 48 126 64 84 34
88 34 88 21z m156 -22 c21 -43 207 -356 256 -433 36 -56 37 -61 21 -73 -19
-15 -82 -44 -120 -56 l-23 -7 20 45 c19 46 39 157 26 144 -4 -3 -14 -37 -22
-74 -16 -77 -44 -120 -44 -69 0 37 -28 100 -62 140 -21 25 -26 44 -31 120 -6
87 -30 246 -43 279 -11 29 5 17 22 -16z m185 -33 c51 -26 97 -63 159 -125 54
-54 55 -55 28 -58 -14 -2 -32 -10 -38 -18 -7 -8 -27 -14 -44 -14 -18 0 -41 -7
-52 -15 -23 -17 -19 -18 25 -5 28 8 41 5 80 -15 l46 -25 -50 0 c-57 0 -51 -17
8 -22 l39 -3 -21 -27 c-25 -32 -83 -47 -106 -28 -12 10 -13 16 -4 26 9 11 7
14 -9 14 -15 0 -34 23 -73 93 -29 50 -79 133 -110 184 -32 50 -55 94 -52 96 6
7 127 -34 174 -58z m-336 -41 c-9 -43 -19 -124 -22 -179 -5 -89 -9 -103 -32
-130 -28 -32 -55 -91 -66 -139 -5 -23 -8 -27 -16 -15 -9 15 -35 99 -42 139 -3
16 -5 11 -5 -15 -1 -35 7 -68 33 -127 4 -12 3 -18 -5 -18 -20 0 -130 52 -130
62 0 4 17 37 39 71 49 80 189 317 227 384 15 29 30 50 32 48 2 -1 -4 -38 -13
-81z m1230 52 c5 -24 1 -48 -14 -80 -19 -45 -34 -56 -46 -36 -3 6 -1 10 5 10
7 0 9 7 6 16 -3 9 4 25 17 38 27 27 34 56 13 56 -8 0 -18 5 -22 12 -4 7 -3 8
4 4 7 -4 12 -2 12 3 0 26 20 8 25 -23z m-2020 13 c4 -5 -5 -28 -20 -50 -21
-32 -30 -39 -48 -34 -17 5 -19 4 -7 -4 12 -8 8 -13 -22 -26 -40 -16 -90 -20
-102 -8 -4 4 -15 8 -23 8 -9 0 -18 6 -21 13 -3 9 7 11 40 6 23 -4 47 -10 53
-15 14 -14 25 -10 19 6 -4 10 0 15 11 15 10 0 14 -5 10 -12 -4 -7 5 2 20 20
15 18 31 30 36 27 5 -4 9 1 9 9 0 9 7 16 16 16 11 0 14 6 9 20 -7 21 9 28 20
9z m-253 -16 c9 -10 19 -29 23 -41 6 -21 5 -22 -12 -14 -29 16 -56 50 -48 61
9 16 20 14 37 -6z m2307 -25 c-11 -7 -11 -11 -1 -15 17 -7 15 -23 -3 -23 -8 0
-15 -5 -15 -11 0 -5 5 -7 10 -4 23 14 -1 -37 -33 -72 -17 -19 -23 -21 -35 -10
-13 10 -15 9 -9 -5 4 -12 0 -21 -14 -29 -23 -12 -46 1 -35 20 11 17 26 13 19
-6 -4 -11 -3 -14 5 -9 7 4 12 14 12 21 0 16 34 38 44 28 3 -3 6 3 6 15 0 12 5
21 11 20 6 -2 12 18 14 46 3 27 10 53 17 57 18 11 24 -11 7 -23z m-339 -3 c0
-16 -5 -22 -17 -21 -26 4 -29 41 -3 43 15 1 20 -4 20 -22z m-133 7 c6 -4 14
-25 18 -47 4 -22 12 -45 17 -52 5 -7 7 -16 4 -22 -3 -5 0 -11 6 -14 10 -3 10
-7 0 -20 -11 -13 -10 -15 7 -10 14 4 23 -1 28 -13 13 -36 44 -46 35 -12 -4 17
-2 20 12 15 14 -6 16 -3 11 13 -7 21 9 28 20 9 5 -7 15 -5 31 6 23 15 24 14
24 -5 0 -17 -4 -20 -19 -15 -14 4 -28 -4 -51 -29 -39 -42 -75 -53 -101 -30
-11 10 -19 12 -19 6 0 -17 -17 -15 -24 4 -3 8 -2 12 3 9 19 -11 21 15 4 42
-11 18 -25 27 -35 25 -12 -2 -18 3 -18 13 0 12 5 15 16 11 13 -5 15 -1 10 19
-5 20 -3 25 11 26 14 0 13 2 -4 9 -17 7 -23 18 -23 40 0 30 13 37 37 22z
m-1861 -38 c-4 -12 -1 -14 14 -9 15 5 18 3 14 -9 -8 -20 -15 -20 -40 -1 -16
13 -17 16 -4 25 21 13 23 13 16 -6z m1994 -14 c10 -6 11 -10 3 -10 -20 0 -15
-21 6 -27 13 -3 18 -12 16 -24 -3 -16 0 -19 15 -14 23 7 27 -10 5 -19 -16 -6
-58 43 -70 82 -7 24 1 28 25 12z m103 -61 c7 -27 -15 -24 -43 5 -14 16 -20 31
-16 42 6 15 9 15 30 -5 13 -13 26 -31 29 -42z m147 1 c0 -13 -51 -30 -90 -30
-42 0 -43 0 -34 23 5 15 54 12 54 -4 0 -5 7 -6 15 -3 8 4 12 11 9 16 -10 15
18 29 33 16 7 -6 13 -14 13 -18z m-85 -54 c11 -2 23 -4 28 -5 4 0 7 -5 7 -11
0 -17 -58 -11 -68 6 -6 11 -11 13 -16 5 -10 -16 -26 -13 -26 5 0 13 6 15 28
10 15 -4 36 -8 47 -10z m-1418 -32 c1 -5 -9 -17 -23 -28 -22 -16 -28 -16 -40
-4 -12 12 -12 17 1 35 12 17 21 20 37 14 12 -4 23 -12 25 -17z m883 -4 c21
-39 -22 -57 -53 -22 -13 14 -14 21 -5 30 18 18 46 14 58 -8z m130 -60 c18 -39
21 -52 11 -64 -10 -11 -9 -16 5 -24 19 -10 11 -32 -12 -32 -8 0 -14 -5 -14
-11 0 -6 9 -8 20 -4 16 5 20 2 22 -17 0 -13 2 -30 2 -38 5 -67 -52 -310 -72
-310 -4 0 -15 18 -25 40 -17 37 -17 41 -1 87 31 88 30 252 -3 339 -6 17 -5 17
10 5 21 -17 47 -8 47 16 0 10 -4 14 -8 8 -11 -16 -29 -16 -42 1 -10 12 -9 18
5 34 10 11 21 20 25 20 4 0 17 -22 30 -50z m-1241 -57 c-67 -285 73 -598 329
-730 44 -23 96 -45 116 -48 39 -8 40 -25 1 -25 -13 0 -40 -9 -59 -21 -20 -11
-41 -19 -48 -17 -7 3 -21 -6 -32 -20 -12 -15 -26 -22 -37 -19 -13 4 -22 -3
-31 -23 -21 -49 -44 -55 -86 -22 -20 16 -59 44 -87 62 -45 30 -48 31 -26 7 13
-14 48 -45 77 -69 30 -24 54 -46 54 -50 0 -4 -11 -23 -24 -43 -14 -20 -26 -41
-29 -48 -6 -19 -111 55 -201 142 -127 123 -229 292 -274 458 -24 85 -45 242
-40 298 l3 40 65 0 c39 0 68 5 73 12 4 6 23 17 42 23 64 21 129 63 180 116 28
29 51 53 51 53 1 1 -7 -34 -17 -76z m161 50 c26 -70 52 -93 105 -93 29 0 30
-4 6 -49 -11 -21 -21 -30 -25 -22 -14 22 -28 11 -22 -17 5 -22 -4 -46 -46
-115 -40 -68 -54 -84 -59 -70 -15 42 -31 169 -25 207 12 78 40 186 48 186 5 0
13 -12 18 -27z m-580 7 c0 -5 6 -9 12 -7 7 1 14 -8 16 -21 4 -25 -15 -55 -29
-46 -16 10 -31 -7 -19 -21 9 -10 7 -13 -7 -11 -13 2 -17 10 -15 27 7 68 14 89
27 89 8 0 15 -4 15 -10z m196 -66 c-17 -24 -17 -26 1 -39 27 -21 7 -33 -81
-51 -78 -16 -100 -14 -76 9 10 9 11 9 6 0 -4 -7 -3 -13 3 -13 5 0 9 9 8 20 -1
13 -6 19 -15 15 -10 -3 -12 3 -10 22 4 40 34 41 72 4 22 -21 38 -29 49 -25 9
3 15 10 12 15 -3 4 -12 6 -20 2 -8 -3 -15 0 -15 6 0 6 -5 10 -11 9 -6 -2 -13
2 -16 9 -2 6 10 14 29 18 18 4 42 14 52 21 27 19 32 10 12 -22z m1566 -41 l38
-37 -22 -13 c-19 -10 -20 -12 -5 -13 11 0 15 -5 11 -11 -3 -6 -17 -9 -31 -6
-15 3 -22 0 -20 -7 7 -20 51 -12 63 12 16 33 19 34 48 21 31 -15 34 -29 5 -29
-19 0 -21 -4 -16 -36 3 -20 12 -43 19 -51 6 -8 13 -22 14 -30 3 -21 8 -23 24
-12 13 8 13 10 0 19 -8 5 -12 10 -7 10 4 0 -2 9 -13 20 -11 11 -20 31 -20 44
0 15 7 26 20 29 11 3 20 0 20 -6 0 -8 3 -8 8 1 6 9 16 10 33 3 14 -5 51 -12
82 -16 40 -5 57 -12 57 -22 0 -8 -4 -11 -10 -8 -5 3 -10 -1 -10 -9 0 -9 5 -16
10 -16 14 0 12 -43 -5 -142 -18 -104 -56 -219 -105 -320 -31 -66 -35 -81 -26
-100 6 -13 22 -24 34 -26 12 -2 22 -6 22 -9 0 -15 -111 -141 -180 -205 -95
-89 -246 -186 -262 -170 -15 15 -3 41 24 51 13 5 41 21 63 36 24 17 41 23 43
16 6 -19 20 -12 24 12 2 12 9 21 15 20 7 -2 24 13 39 32 21 28 32 34 48 29 17
-5 19 -4 9 7 -10 10 -9 17 9 36 12 13 30 23 40 23 11 0 16 4 13 10 -8 13 24
60 41 60 8 0 14 8 13 18 0 9 -3 12 -5 6 -3 -7 -13 -10 -22 -8 -11 2 -31 -13
-53 -41 -51 -61 -149 -147 -227 -198 -89 -58 -92 -59 -92 -50 0 5 37 33 82 63
92 61 221 179 275 252 60 82 31 63 -38 -25 -68 -86 -193 -194 -278 -241 l-49
-26 -32 57 -33 57 24 16 c13 8 40 30 59 48 34 33 34 33 5 16 -16 -10 -45 -31
-63 -48 l-32 -30 -21 21 -21 21 21 21 c12 12 21 26 21 32 0 8 4 8 14 0 9 -7
17 -8 20 -2 7 10 -3 41 -13 41 -11 -1 -61 -49 -61 -60 0 -20 -25 -9 -59 25
-18 19 -36 34 -40 33 -3 -1 -26 8 -51 20 -25 12 -52 22 -61 22 -9 0 -22 7 -29
15 -7 9 -29 15 -51 15 -36 0 -39 2 -39 29 0 36 12 44 67 48 93 5 223 67 306
146 29 29 58 60 64 70 7 13 22 19 51 20 23 1 42 -2 42 -7 0 -14 -65 -98 -107
-138 -41 -39 -159 -118 -177 -118 -6 -1 -29 -9 -51 -20 -22 -11 -52 -19 -67
-20 -15 0 -30 -4 -33 -10 -16 -25 87 -3 175 38 222 103 370 339 370 588 0 57
4 84 13 87 9 3 7 9 -5 24 -43 48 -5 44 44 -4z m649 -6 c-4 -10 -11 -18 -16
-18 -12 0 -19 27 -11 47 5 12 8 13 20 2 8 -8 11 -21 7 -31z m-2395 -1 c-2 -17
-4 -36 -5 -43 0 -6 -14 -11 -31 -11 -25 1 -30 5 -30 25 0 14 4 22 10 18 14 -9
42 15 36 30 -2 6 2 12 10 12 9 0 12 -10 10 -31z m2088 2 c11 -44 7 -88 -9 -88
-12 0 -15 13 -15 55 0 56 13 73 24 33z m166 -80 c-1 -34 -35 -73 -64 -73 -15
-1 -26 5 -26 12 0 7 10 13 23 14 16 0 18 2 7 7 -25 11 -17 33 15 47 42 19 45
18 45 -7z m-2260 -80 c0 -116 27 -249 73 -362 23 -57 31 -86 23 -86 -7 0 -18
-12 -25 -26 -11 -24 -8 -33 31 -93 74 -115 238 -268 373 -346 10 -6 16 -17 14
-23 -3 -9 -24 0 -64 26 -147 95 -286 243 -360 383 -40 77 -43 95 -15 104 23 7
25 23 5 49 -14 19 -15 18 -27 -15 l-12 -34 -12 30 c-18 41 -17 83 1 101 19 20
19 34 0 34 -9 0 -18 -13 -22 -32 l-7 -33 -13 44 c-9 33 -10 47 -2 52 9 5 7 29
-5 88 -20 103 -21 138 -3 122 10 -8 14 -7 14 4 0 8 -5 15 -11 15 -6 0 -4 5 4
10 13 8 12 10 -2 10 -13 0 -18 8 -18 26 0 23 2 25 15 14 9 -7 19 -9 23 -5 4 4
1 10 -6 12 -15 6 -6 23 14 23 11 0 14 -19 14 -92z m2160 47 c0 -27 -9 -32 -27
-14 -14 14 -6 39 13 39 8 0 14 -10 14 -25z m-60 -38 c0 -62 -26 -208 -50 -287
-16 -51 -19 -74 -11 -87 9 -16 10 -16 11 5 0 14 9 26 23 32 12 5 16 9 8 9 -11
1 -11 4 -1 16 7 8 8 15 3 15 -12 0 10 80 33 123 8 15 11 27 5 27 -9 0 -4 149
6 160 3 3 11 -4 19 -15 16 -21 13 -66 -13 -200 -19 -98 -53 -195 -105 -298
-33 -66 -42 -78 -61 -75 -27 4 -35 48 -13 71 9 9 16 19 16 22 0 4 9 18 20 32
14 18 17 30 10 38 -7 8 -2 35 15 85 32 94 54 213 56 298 1 37 3 70 6 75 10 18
23 -7 23 -46z m-1320 0 c52 -14 55 -16 65 -58 15 -57 38 -100 76 -144 26 -30
28 -35 13 -35 -26 0 -114 52 -145 86 -32 35 -109 163 -109 181 0 11 4 11 23
-1 12 -9 47 -21 77 -29z m620 27 c0 -18 -105 -176 -132 -199 -33 -28 -87 -58
-127 -70 -23 -7 -22 -4 12 35 41 48 77 116 77 146 0 31 12 40 70 58 30 9 62
20 70 26 17 11 30 13 30 4z m65 -51 c16 -31 40 -72 52 -90 28 -42 28 -53 2
-97 l-21 -36 -150 0 c-97 0 -147 4 -143 10 3 6 12 10 20 10 26 0 132 109 163
168 18 33 32 67 32 76 0 30 15 16 45 -41z m-791 -8 c31 -67 115 -159 176 -191
l45 -23 -150 0 -150 -1 -22 40 c-13 21 -23 44 -23 50 0 8 92 179 97 180 1 0
13 -25 27 -55z m-107 -212 c-3 -2 -21 -3 -41 -1 l-35 3 21 33 21 33 19 -32
c10 -17 17 -33 15 -36z m1023 6 c0 -5 -13 -9 -30 -9 -34 0 -34 0 -18 36 l12
26 18 -22 c10 -12 18 -26 18 -31z m-937 -103 c69 -69 176 -136 216 -136 10 0
21 -3 25 -7 4 -5 11 -8 14 -9 95 -8 133 -17 128 -31 -3 -8 -6 -24 -6 -35 0
-20 -4 -21 -71 -14 -129 12 -271 84 -373 191 -35 36 -86 105 -86 116 0 4 18 5
41 2 34 -5 53 -18 112 -77z m309 62 c-2 -10 1 -18 8 -18 9 0 7 -6 -4 -19 -18
-19 -17 -20 15 -29 37 -10 38 -12 13 -88 l-17 -52 -64 19 c-35 10 -89 30 -119
46 -59 30 -174 127 -174 146 0 9 48 12 173 12 161 0 174 -1 169 -17z m108 15
c-1 -22 -20 -34 -50 -31 -45 4 -50 26 -8 31 18 2 39 5 46 5 6 1 12 -1 12 -5z
m410 -5 c0 -13 -97 -102 -145 -133 -63 -41 -178 -76 -267 -81 -77 -5 -79 -3
-51 68 22 58 26 61 57 47 27 -13 43 -48 31 -71 -3 -7 1 -4 9 6 9 11 16 25 16
32 0 16 -48 54 -67 54 -8 0 -13 6 -10 13 2 6 15 11 28 10 22 -3 23 -2 6 11
-26 20 -11 44 31 48 70 6 362 3 362 -4z m-440 -58 c0 -13 -40 -13 -60 0 -11 7
-5 10 23 10 20 0 37 -4 37 -10z m-891 -196 c18 -30 55 -82 83 -116 44 -52 49
-62 36 -74 -13 -13 -16 -13 -29 2 -8 10 -14 29 -14 43 0 21 -4 25 -22 23 -16
-2 -26 5 -37 26 -8 16 -22 34 -30 41 -20 17 -20 31 0 31 8 0 12 5 9 10 -4 6
-14 8 -23 5 -11 -3 -22 3 -30 15 -7 12 -8 20 -2 20 5 0 10 7 10 15 0 28 15 15
49 -41z m1837 -101 c-61 -89 -240 -270 -278 -281 -7 -2 5 11 27 28 71 59 189
184 228 243 22 32 41 56 44 53 3 -2 -7 -22 -21 -43z m-886 16 c115 -18 262
-103 240 -139 -7 -12 -11 -12 -28 3 -25 23 -41 22 -35 -3 3 -11 9 -20 14 -20
5 0 8 -3 6 -7 -2 -9 6 -13 28 -13 8 0 15 6 15 14 0 19 29 29 45 16 8 -6 33
-41 56 -77 42 -63 42 -66 23 -80 -18 -13 -17 -14 11 -7 26 6 28 5 17 -8 -7 -9
-21 -18 -31 -21 -14 -3 -17 2 -16 31 1 26 -4 36 -17 40 -19 5 -34 43 -25 66 4
10 -3 14 -29 13 -33 -1 -46 -18 -24 -32 6 -3 10 -15 10 -27 0 -13 5 -18 13
-15 17 6 28 -1 44 -30 14 -25 12 -27 -48 -48 -42 -15 -65 -12 -53 7 4 6 10 5
15 -3 7 -11 9 -11 9 1 0 9 -13 31 -30 50 -16 19 -29 43 -30 53 0 10 -5 15 -10
12 -15 -9 -70 34 -70 55 0 13 -5 17 -20 13 -21 -6 -28 -23 -9 -23 6 0 9 -6 6
-12 -2 -7 -11 -12 -18 -10 -11 3 -11 1 -2 -9 10 -10 15 -9 28 1 11 9 19 10 26
3 8 -8 7 -13 -2 -18 -8 -5 -10 -4 -5 3 4 7 2 12 -3 12 -16 0 -13 -16 5 -31 13
-10 17 -10 24 1 5 8 12 11 16 8 7 -8 -33 -68 -47 -68 -5 0 -9 4 -9 8 0 11 -61
38 -116 52 -51 13 -120 7 -159 -14 -16 -9 -36 -16 -43 -16 -16 0 -6 -41 12
-52 8 -5 6 -13 -6 -25 -17 -16 -18 -16 -18 0 0 21 -7 22 -25 3 -16 -16 -10
-27 11 -19 9 3 5 -10 -11 -38 -31 -55 -33 -126 -5 -188 11 -24 23 -42 25 -39
3 3 -2 19 -12 35 -16 29 -16 31 2 49 18 19 18 19 13 -3 -3 -13 -2 -23 2 -23
14 0 22 -40 11 -54 -13 -15 5 -34 58 -61 27 -13 51 -16 103 -13 70 6 89 -2 68
-27 -14 -16 -10 -18 14 -9 19 7 21 40 4 47 -9 3 -4 11 12 25 33 28 40 27 40
-5 0 -26 1 -27 18 -10 16 17 16 19 -1 31 -17 13 -17 15 3 48 47 80 32 175 -39
246 -18 17 -27 32 -21 32 7 0 10 8 7 20 -7 27 5 25 42 -6 35 -29 39 -41 14
-46 -16 -3 -15 -5 3 -23 27 -27 46 -73 39 -96 -5 -15 -1 -19 15 -19 18 0 19 2
9 23 -7 12 -11 22 -9 22 7 0 -14 50 -26 63 -8 7 -11 18 -8 24 9 14 50 -67 59
-115 6 -32 5 -37 -12 -37 -11 0 -19 -7 -20 -17 -1 -10 -4 -27 -6 -38 -3 -11
-6 -23 -6 -27 -1 -5 -8 -8 -16 -8 -17 0 -19 -9 -6 -29 7 -11 13 -7 25 17 9 17
16 40 16 50 0 11 7 25 15 32 13 11 14 8 9 -21 -10 -52 -54 -128 -94 -160 -37
-31 -114 -59 -162 -59 -22 0 -31 7 -40 27 -11 27 -12 28 -16 5 -4 -24 -26 -25
-28 -1 -1 8 -2 20 -3 27 0 6 -6 12 -12 12 -7 0 -9 -10 -7 -24 6 -30 -10 -26
-63 15 -76 59 -114 180 -84 270 14 42 19 48 32 38 12 -10 16 -10 23 1 6 9 3
18 -8 26 -15 11 -14 16 15 46 31 32 32 34 13 46 -16 10 -18 9 -13 -4 3 -8 -3
-23 -13 -33 -18 -17 -20 -17 -49 3 -16 12 -31 21 -33 22 -1 1 0 9 4 18 3 9 10
13 15 10 5 -3 7 -10 4 -15 -4 -5 -2 -9 3 -9 16 0 21 27 9 39 -9 10 -9 12 3 9
8 -2 17 -6 20 -10 3 -4 19 4 35 17 19 16 23 22 11 18 -13 -4 -17 -2 -14 8 3 8
13 13 22 13 9 -1 16 3 17 10 0 6 7 -6 16 -26 17 -43 37 -51 27 -13 -11 43 -10
58 5 63 10 3 12 0 8 -12 -4 -10 -1 -16 8 -16 8 0 15 5 15 11 0 8 4 8 13 2 6
-5 31 -9 55 -8 35 1 42 -2 42 -17 0 -11 5 -16 10 -13 6 4 8 11 5 16 -4 5 4 9
17 10 13 0 17 3 11 6 -18 7 -16 23 3 23 16 0 15 -19 -2 -64 -3 -9 -1 -16 5
-16 6 0 11 4 11 8 0 5 9 19 20 32 12 13 18 30 15 38 -3 7 -5 19 -5 25 0 7 -3
7 -9 2 -6 -6 -69 -9 -140 -8 -105 1 -131 -2 -131 -12 0 -8 -20 -26 -44 -40
-52 -31 -134 -117 -128 -135 3 -9 -1 -11 -14 -5 -11 4 -27 10 -36 12 -20 6
-25 53 -6 53 24 0 -7 19 -37 22 -26 3 -30 -1 -33 -23 -3 -23 4 -29 55 -52 93
-41 113 -48 113 -36 0 6 9 8 23 4 16 -5 13 0 -12 19 -40 30 -34 33 15 10 40
-19 40 -19 15 -61 -11 -17 -23 -48 -27 -68 -6 -31 -10 -36 -28 -31 -11 3 -27
6 -34 6 -7 0 -10 5 -7 10 4 6 11 8 16 5 11 -7 12 16 1 30 -4 6 -20 11 -36 13
-47 5 -101 31 -90 42 11 11 104 -16 104 -29 0 -12 39 -7 44 5 5 12 -17 24 -79
44 -64 19 -115 43 -115 53 0 22 95 149 139 186 27 23 51 41 54 41 7 0 3 -34
-5 -40 -4 -3 -2 -12 3 -20 8 -11 12 -12 16 -2 7 17 23 15 23 -3 0 -17 2 -18
24 -9 25 9 19 28 -14 47 -51 30 -39 44 75 87 77 29 164 36 265 19z m-657 -226
c37 -26 67 -52 67 -60 0 -7 -2 -13 -5 -13 -7 0 -80 42 -85 49 -3 4 -13 10 -22
14 -10 3 -18 16 -18 27 0 12 -4 18 -10 15 -13 -8 -52 14 -45 26 4 5 -3 9 -13
9 -29 0 -48 26 -32 45 11 13 18 9 54 -25 22 -23 71 -62 109 -87z m567 -38 c0
-8 7 -15 15 -15 9 0 12 6 9 15 -7 18 21 20 60 5 19 -7 26 -17 26 -35 0 -27 -1
-28 -25 -19 -12 5 -13 9 -5 14 15 9 4 30 -15 30 -9 0 -12 -6 -8 -16 5 -13 0
-15 -26 -11 -27 5 -31 3 -31 -19 0 -13 -4 -24 -10 -24 -5 0 -10 5 -10 10 0 6
-14 0 -31 -12 -25 -19 -31 -20 -39 -8 -13 21 -3 29 41 36 23 4 36 10 29 14 -6
4 -8 15 -4 25 5 13 4 16 -4 11 -7 -4 -12 -2 -12 3 0 6 9 11 20 11 11 0 20 -7
20 -15z m-53 -9 c-3 -8 -1 -17 6 -19 7 -2 -5 -9 -27 -17 -32 -10 -40 -10 -47
1 -13 21 -11 25 14 37 33 16 60 15 54 -2z m173 -77 c0 -5 -7 -12 -15 -15 -13
-5 -12 -10 5 -31 11 -14 17 -29 15 -34 -7 -10 -35 0 -35 12 0 5 -7 9 -15 9
-18 0 -20 16 -2 24 6 3 -12 2 -40 -1 -36 -4 -53 -2 -53 6 0 6 -9 2 -20 -9 -26
-26 -44 -25 -63 3 -12 18 -18 20 -28 10 -9 -9 -10 -13 -1 -13 6 0 9 -6 6 -14
-3 -7 1 -20 8 -27 25 -26 7 -152 -18 -127 -9 10 -10 79 -1 110 5 19 2 31 -9
43 -15 15 -15 18 6 41 23 24 47 34 35 14 -3 -5 -1 -10 5 -10 6 0 8 -4 5 -10
-9 -14 5 -12 35 5 30 17 78 19 116 5 27 -11 50 3 38 22 -3 4 2 5 10 2 9 -3 16
-10 16 -15z m-585 -2 c12 -10 14 -16 7 -21 -13 -8 -52 10 -52 24 0 14 23 12
45 -3z m885 5 c0 -9 -59 -32 -81 -32 -16 1 50 39 69 40 6 0 12 -4 12 -8z m83
-23 c4 -14 -1 -23 -16 -28 -28 -11 -31 -8 -23 24 8 30 32 33 39 4z m-338 -39
c-3 -5 0 -10 7 -12 7 -3 12 -29 14 -66 1 -41 -2 -60 -9 -55 -6 4 -8 0 -4 -11
7 -19 -13 -65 -36 -84 -20 -17 -52 -5 -37 14 7 7 17 11 25 8 8 -3 12 1 12 13
-1 10 3 17 8 16 6 -1 12 21 13 50 1 28 8 54 15 59 7 5 8 8 1 8 -6 0 -16 10
-21 23 -8 17 -10 12 -5 -26 7 -73 -38 -158 -63 -117 -3 6 -1 10 4 10 6 0 11 8
11 18 0 11 9 27 20 37 23 21 27 55 6 55 -8 0 -18 4 -21 10 -3 5 0 7 7 5 9 -4
18 7 26 28 16 43 15 50 -3 43 -16 -6 -20 5 -8 18 9 9 45 -33 38 -44z m281 1
c-8 -12 -98 -42 -105 -35 -3 3 -1 8 5 12 6 4 13 13 16 21 2 8 20 20 39 26 27
10 36 10 42 -1 4 -8 6 -18 3 -23z m-399 -4 c4 -8 16 -16 25 -20 22 -8 33 -70
19 -105 -13 -32 -51 -61 -51 -40 -1 8 -6 6 -14 -4 -17 -23 -33 -23 -73 1 -24
15 -30 25 -26 40 4 15 1 21 -11 21 -9 0 -16 8 -16 20 0 11 4 20 10 20 5 0 7 7
4 15 -4 8 -1 15 5 15 6 0 11 -7 11 -15 0 -8 5 -15 10 -15 13 0 13 27 0 35 -13
8 -1 35 16 35 8 0 14 -7 14 -15 0 -18 5 -19 33 -3 21 11 21 11 2 19 -17 7 -16
8 7 8 15 1 31 -5 35 -12z m-187 -14 c0 -15 -23 -43 -35 -43 -18 0 -18 1 -5 34
6 17 14 24 25 20 8 -3 15 -8 15 -11z m707 -50 c14 -34 14 -42 -1 -90 -9 -29
-20 -55 -25 -57 -4 -3 -8 37 -7 89 1 52 5 95 9 95 4 0 15 -17 24 -37z m-727
-25 c0 -10 -4 -18 -9 -18 -5 0 -12 -8 -14 -17 -3 -10 -5 -2 -6 18 -1 26 3 36
14 36 8 0 15 -9 15 -19z m-167 5 c-7 -2 -13 -18 -13 -34 0 -16 -4 -29 -10 -29
-11 0 -12 15 -4 48 4 12 14 22 23 21 10 0 11 -2 4 -6z m249 -80 c10 -9 18 -22
18 -28 0 -7 7 -15 15 -19 8 -3 15 -1 15 4 0 14 44 12 58 -2 12 -12 13 -10 16
15 1 16 38 16 44 -1 6 -20 -65 -44 -110 -37 -45 8 -105 55 -94 73 10 16 16 15
38 -5z m-26 -59 c-4 -12 -2 -15 9 -11 8 4 34 0 57 -7 24 -7 49 -11 56 -8 6 2
12 -1 12 -7 0 -6 4 -11 10 -11 5 0 7 7 4 15 -4 10 0 15 11 15 9 0 13 -4 10
-10 -3 -5 -2 -10 4 -10 5 0 11 7 13 15 2 10 7 12 18 5 12 -7 7 -12 -22 -25
-43 -18 -98 -20 -98 -4 0 6 -7 8 -16 5 -10 -4 -22 1 -30 11 -13 17 -14 17 -7
-1 6 -19 6 -19 -25 0 -34 20 -39 29 -19 37 19 8 20 8 13 -9z"/>
<path d="M1495 3016 c-12 -8 -16 -19 -11 -31 3 -10 1 -23 -4 -31 -13 -15 15
-34 49 -34 12 0 21 -5 21 -11 0 -6 -7 -9 -15 -5 -38 14 -59 -22 -31 -53 25
-28 4 -38 -95 -46 -121 -8 -133 0 -98 72 12 27 38 67 57 91 19 23 30 42 24 42
-19 0 -102 -104 -114 -143 -8 -26 -16 -36 -26 -32 -7 3 -16 5 -18 5 -2 0 -1
18 2 40 7 42 -2 110 -15 110 -4 0 -6 -14 -3 -30 2 -17 1 -50 -2 -74 -6 -36
-12 -45 -31 -50 -35 -9 -31 -23 4 -18 28 4 107 -15 98 -24 -2 -2 -38 -13 -79
-23 -90 -23 -241 -84 -246 -99 -2 -6 26 2 62 18 67 31 211 76 275 86 20 3 99
8 176 11 213 8 399 -35 584 -133 88 -47 96 -50 86 -35 -10 17 -114 72 -187
100 -38 15 -68 31 -66 37 2 5 29 9 61 9 31 0 57 3 57 7 0 14 -39 28 -79 28
-23 0 -41 4 -41 9 0 20 32 96 47 113 9 10 13 21 9 26 -13 12 -64 -55 -76 -99
-6 -23 -9 -52 -6 -65 8 -29 8 -29 -96 -5 -46 11 -120 23 -164 27 l-81 6 20 49
c23 55 44 62 78 28 15 -15 19 -28 15 -47 l-7 -27 21 25 c23 30 26 50 5 50 -8
0 -15 4 -15 9 0 5 -16 15 -35 21 -38 13 -37 35 1 27 27 -5 33 8 8 17 -9 3 -14
12 -11 19 19 46 18 51 -6 24 -19 -23 -31 -28 -57 -25 -44 4 -53 28 -10 28 18
0 29 4 25 10 -9 14 -38 12 -60 -4z m65 -71 c0 -16 -17 -19 -44 -9 -26 10 -18
24 14 24 20 0 30 -5 30 -15z"/>
<path d="M1773 2955 c32 -19 37 -63 9 -88 -20 -19 -52 -23 -52 -7 0 6 -5 10
-12 10 -7 0 -3 -9 9 -21 19 -19 23 -20 49 -8 16 8 35 26 43 41 14 25 14 29 -5
55 -12 15 -32 29 -45 31 -23 2 -23 2 4 -13z"/>
<path d="M950 2876 c-80 -14 -67 -27 14 -15 33 6 63 6 67 2 4 -4 9 -21 11 -38
2 -23 -1 -29 -12 -26 -50 14 -77 11 -103 -9 -15 -12 -27 -27 -27 -34 0 -18 21
-35 36 -29 20 7 17 23 -3 23 -15 1 -14 4 7 21 23 19 44 21 80 5 9 -4 24 -1 33
7 16 11 17 18 6 60 -13 52 -8 51 -109 33z"/>
<path d="M1932 2860 c-20 -33 -14 -42 18 -25 19 10 27 20 24 30 -8 21 -27 19
-42 -5z"/>
<path d="M2122 2871 c-23 -14 -9 -43 28 -63 36 -20 74 -57 66 -65 -2 -3 -14 1
-26 7 -12 6 -28 9 -37 6 -12 -5 -12 -11 6 -40 24 -39 27 -56 8 -56 -19 0 -47
33 -47 54 0 10 -6 16 -12 13 -18 -6 -11 -49 10 -65 55 -41 104 -15 76 41 -15
28 -15 30 2 23 33 -13 38 -11 42 13 4 24 -41 81 -64 81 -6 0 -17 7 -24 15 -11
13 -10 18 6 30 19 14 19 14 -1 15 -11 0 -26 -4 -33 -9z"/>
<path d="M2006 2819 c3 -5 23 -14 45 -20 22 -7 45 -21 50 -31 6 -10 14 -16 20
-13 12 8 12 25 -2 25 -6 0 -23 8 -37 19 -28 19 -85 34 -76 20z"/>
<path d="M900 2643 c0 -25 0 -26 20 -8 11 10 20 19 20 20 0 2 -9 5 -20 8 -16
4 -20 0 -20 -20z"/>
<path d="M2180 2595 l25 -15 -24 3 c-13 1 -25 -3 -28 -8 -4 -14 45 -11 59 3 8
8 4 14 -16 22 -38 14 -46 12 -16 -5z"/>
<path d="M1362 2683 c-10 -4 -9 -8 5 -19 17 -12 16 -13 -6 -14 -17 0 -22 -3
-15 -10 21 -21 64 16 48 41 -6 10 -12 10 -32 2z"/>
<path d="M1041 2576 c-13 -15 -13 -19 0 -27 18 -11 26 -11 34 1 3 6 2 10 -4
10 -5 0 -11 7 -13 17 -3 15 -4 15 -17 -1z"/>
<path d="M1706 2649 c3 -5 14 -13 24 -19 15 -8 19 -7 17 9 -1 12 -9 19 -24 19
-12 0 -20 -4 -17 -9z"/>
<path d="M1541 2456 c-17 -20 13 -43 34 -26 12 10 13 16 4 26 -6 8 -15 14 -19
14 -4 0 -13 -6 -19 -14z"/>
<path d="M1409 2453 c-1 -5 -1 -12 0 -17 1 -5 -6 -5 -16 -1 -32 12 -37 10 -41
-12 -4 -26 15 -31 24 -8 5 12 10 13 20 4 16 -13 44 4 44 27 0 14 -29 20 -31 7z"/>
<path d="M1477 2446 c-7 -17 1 -26 21 -26 9 0 12 3 9 7 -4 3 -2 12 4 20 9 10
7 13 -9 13 -11 0 -22 -6 -25 -14z"/>
<path d="M1604 2444 c3 -9 6 -18 6 -20 0 -2 7 -4 15 -4 8 0 15 9 15 20 0 14
-7 20 -21 20 -15 0 -19 -4 -15 -16z"/>
<path d="M1676 2419 c9 -11 21 -19 26 -19 4 0 8 8 8 19 0 13 -7 19 -25 19 -25
0 -25 -1 -9 -19z"/>
<path d="M1730 2430 c-7 -4 -9 -13 -6 -19 10 -16 46 -14 46 3 0 17 -23 27 -40
16z"/>
<path d="M1827 2403 c-4 -3 -7 -15 -7 -25 0 -16 3 -17 20 -8 22 12 27 40 7 40
-8 0 -17 -3 -20 -7z"/>
<path d="M1207 2394 c-10 -11 -8 -44 2 -44 6 0 13 4 16 10 8 12 -9 43 -18 34z"/>
<path d="M1156 2373 c-4 -9 -1 -20 6 -25 21 -12 31 -9 24 8 -3 9 -6 20 -6 25
0 15 -17 10 -24 -8z"/>
<path d="M1883 2376 c3 -8 1 -17 -6 -19 -7 -2 -9 -7 -6 -11 3 -3 14 -4 23 0
21 8 21 44 0 44 -10 0 -14 -6 -11 -14z"/>
<path d="M2055 2370 c-9 -14 4 -52 16 -45 5 4 9 1 9 -4 0 -6 9 -11 21 -11 16
0 19 4 14 19 -4 14 0 21 12 24 14 4 14 5 -4 6 -12 0 -25 6 -28 11 -8 13 -32
13 -40 0z"/>
<path d="M1932 2363 c-6 -2 -10 -9 -6 -14 3 -5 0 -9 -7 -9 -10 0 -10 -3 -2
-11 16 -16 43 -3 43 21 0 20 -5 23 -28 13z"/>
<path d="M1110 2348 c0 -7 4 -19 9 -27 11 -17 25 3 17 24 -7 18 -26 20 -26 3z"/>
<path d="M1069 2328 c-10 -34 -7 -46 10 -41 13 3 17 11 14 24 -4 15 -21 27
-24 17z"/>
<path d="M1977 2323 c-14 -4 -16 -8 -6 -19 17 -20 34 -17 36 6 2 21 1 21 -30
13z"/>
<path d="M2013 2285 c-18 -19 -16 -28 3 -21 8 3 13 2 10 -3 -3 -5 2 -12 12
-16 16 -6 16 -7 -2 -21 -11 -8 -15 -14 -9 -14 14 0 43 28 43 40 0 5 -7 15 -15
23 -8 8 -11 17 -8 21 4 3 0 6 -8 6 -8 -1 -20 -7 -26 -15z"/>
<path d="M355 2640 c4 -6 1 -18 -6 -26 -10 -13 -14 -12 -32 3 -12 11 -17 12
-12 4 6 -11 4 -13 -9 -8 -14 6 -17 3 -12 -9 3 -8 6 -17 6 -19 0 -6 45 10 68
25 25 17 29 40 6 40 -8 0 -12 -5 -9 -10z"/>
<path d="M228 2565 c-6 -29 4 -32 26 -9 21 21 20 34 -3 34 -12 0 -20 -9 -23
-25z"/>
<path d="M908 2386 c-5 -24 3 -49 16 -47 18 3 20 0 6 -9 -10 -7 -12 -12 -4
-17 6 -5 11 -19 10 -33 -1 -27 28 -40 47 -21 8 8 7 16 -5 28 -16 15 -17 15
-11 -5 4 -16 1 -22 -11 -22 -13 0 -15 6 -10 28 4 15 11 29 16 30 16 7 8 32
-10 32 -25 0 -34 11 -22 25 7 9 6 16 -4 24 -11 9 -15 7 -18 -13z"/>
<path d="M814 2295 c-4 -8 -3 -23 0 -32 6 -15 8 -15 17 -3 8 13 10 13 19 0 8
-12 10 -12 10 5 0 11 -5 27 -10 35 -8 13 -10 12 -10 -2 0 -10 -4 -18 -10 -18
-5 0 -7 7 -4 15 4 8 3 15 0 15 -4 0 -9 -7 -12 -15z"/>
<path d="M823 2229 c-18 -5 -33 -14 -33 -19 0 -5 7 -7 15 -4 9 4 18 -2 24 -17
7 -18 10 -19 10 -6 1 20 17 23 24 5 3 -8 6 -6 6 5 1 9 -4 17 -11 17 -6 0 -3 7
8 15 23 17 7 18 -43 4z"/>
<path d="M937 2222 c-12 -2 -16 -9 -13 -19 3 -8 6 -17 6 -19 0 -10 28 -3 46
12 10 8 14 13 7 10 -6 -4 -15 0 -20 7 -4 7 -16 11 -26 9z"/>
<path d="M936 2054 c-10 -26 -7 -34 14 -34 21 0 24 8 14 34 -8 20 -20 20 -28
0z"/>
<path d="M911 1979 c5 -11 14 -19 18 -19 5 0 11 8 14 19 3 14 -1 19 -19 19
-20 0 -22 -3 -13 -19z"/>
<path d="M882 1934 c1 -22 6 -30 15 -27 17 7 16 15 -2 39 -14 18 -15 17 -13
-12z"/>
<path d="M681 1918 c5 -18 9 -34 9 -35 0 -1 9 -1 19 0 21 1 18 20 -7 50 -23
26 -32 20 -21 -15z"/>
<path d="M728 1803 c-23 -6 -23 -15 2 -36 19 -16 20 -16 20 13 0 17 -1 29 -2
29 -2 -1 -11 -3 -20 -6z"/>
<path d="M2840 2041 c0 -6 8 -11 18 -11 10 0 13 -3 6 -8 -13 -9 -64 -119 -64
-139 0 -10 -6 -12 -20 -8 -11 3 -20 3 -20 -2 0 -19 31 -51 55 -55 29 -6 31 -2
10 18 -17 18 -20 34 -4 34 5 0 7 -4 4 -10 -3 -5 -2 -10 3 -10 6 0 13 7 16 16
3 8 2 12 -4 9 -6 -3 -10 1 -10 10 0 12 5 15 18 10 14 -5 15 -4 5 6 -17 17 -16
29 2 29 14 0 19 -11 16 -37 -1 -7 2 -13 7 -13 4 0 9 16 10 36 2 29 0 35 -13
31 -9 -4 -15 -1 -15 7 0 20 12 27 25 16 10 -8 14 -1 19 26 8 42 9 42 -32 50
-21 4 -32 3 -32 -5z"/>
<path d="M2732 1818 c3 -39 5 -45 19 -37 9 4 19 5 23 2 18 -18 2 26 -19 52
l-25 30 2 -47z"/>
<path d="M257 2251 c-20 -44 -21 -51 -7 -51 9 0 35 79 28 86 -3 2 -12 -14 -21
-35z"/>
<path d="M490 1969 c0 -12 24 -16 50 -8 27 7 22 11 -22 13 -16 1 -28 -1 -28
-5z"/>
<path d="M2710 2250 c0 -5 8 -17 19 -27 26 -26 42 -78 28 -92 -8 -8 -5 -11 10
-11 17 0 21 5 18 23 -7 35 -27 77 -36 77 -5 0 -9 9 -9 20 0 11 -7 20 -15 20
-8 0 -15 -4 -15 -10z"/>
<path d="M2130 2176 c0 -19 4 -24 15 -19 18 6 16 34 -2 41 -8 2 -13 -6 -13
-22z"/>
<path d="M2306 2012 c6 -4 13 -15 17 -24 7 -19 27 -25 27 -8 0 6 -4 10 -10 10
-5 0 -7 7 -4 15 5 11 -1 15 -17 15 -14 0 -19 -4 -13 -8z"/>
<path d="M525 2240 c-4 -6 -10 -8 -15 -5 -4 3 -11 -3 -14 -12 -4 -9 -1 -20 6
-25 19 -12 25 -10 32 10 3 9 9 23 12 30 7 14 -12 16 -21 2z"/>
<path d="M539 2185 c-1 -3 -2 -8 -3 -12 -1 -5 -5 -14 -9 -20 -5 -7 -4 -13 1
-13 10 0 42 33 42 43 0 8 -29 10 -31 2z"/>
<path d="M450 2161 c0 -17 24 -51 36 -51 8 0 -1 35 -11 43 -6 4 -4 11 5 17 12
8 11 10 -7 10 -16 0 -23 -6 -23 -19z"/>
<path d="M1496 2108 c-4 -13 -12 -106 -18 -208 -9 -153 -14 -188 -29 -205 -28
-32 -49 -90 -49 -137 0 -43 38 -139 60 -153 21 -13 22 4 2 33 -12 15 -26 50
-33 75 -10 40 -9 54 6 93 9 24 27 57 40 72 22 26 23 36 26 240 3 116 4 212 3
212 -1 0 -5 -10 -8 -22z"/>
<path d="M1551 2083 c4 -27 8 -121 8 -209 l1 -162 35 -52 c45 -67 49 -141 10
-209 -28 -49 -24 -70 5 -31 24 31 50 105 50 140 0 41 -19 91 -50 130 -26 34
-27 38 -33 215 -3 99 -9 190 -13 203 -12 40 -21 23 -13 -25z"/>
<path d="M1487 1601 c-35 -59 -11 -131 43 -131 59 0 80 81 35 135 -28 35 -32
21 -8 -29 13 -29 14 -40 5 -61 -12 -27 -40 -33 -60 -13 -16 16 -15 60 3 84 16
21 20 44 7 44 -4 0 -15 -13 -25 -29z"/>
<path d="M2558 2143 c-20 -5 -25 -43 -7 -43 12 0 38 29 39 43 0 7 -4 7 -32 0z"/>
<path d="M2500 2071 c0 -30 11 -51 26 -51 12 0 13 4 3 22 -9 17 -9 23 0 26 15
5 4 22 -15 22 -8 0 -14 -9 -14 -19z"/>
<path d="M2583 2076 c3 -8 1 -17 -6 -20 -7 -3 -3 -5 8 -3 25 3 34 37 10 37
-11 0 -15 -5 -12 -14z"/>
<path d="M693 1664 c-6 -16 15 -37 28 -28 10 6 -1 44 -12 44 -6 0 -12 -7 -16
-16z"/>
<path d="M690 1606 c0 -7 7 -19 15 -26 13 -11 15 -8 15 14 0 16 -5 26 -15 26
-8 0 -15 -6 -15 -14z"/>
<path d="M690 1540 c0 -23 4 -24 31 -10 27 15 24 30 -6 30 -18 0 -25 -5 -25
-20z"/>
<path d="M707 1503 c-10 -40 -6 -74 9 -80 25 -9 41 14 26 37 -6 11 -12 26 -12
34 0 22 -18 29 -23 9z"/>
<path d="M735 1394 c-13 -13 -14 -19 -4 -25 8 -4 18 -1 26 9 25 33 8 45 -22
16z"/>
<path d="M752 1347 c-7 -8 -7 -18 -2 -27 6 -8 10 -25 10 -37 0 -29 16 -30 30
-2 10 17 8 21 -8 26 -14 3 -18 11 -14 29 5 27 0 30 -16 11z"/>
<path d="M791 1251 l-24 -7 26 -17 c15 -10 24 -23 21 -31 -7 -19 12 -29 32
-18 15 8 14 11 -6 25 -14 10 -20 22 -17 31 8 20 -2 24 -32 17z"/>
<path d="M840 1145 c0 -13 6 -22 15 -22 9 0 15 9 15 22 0 13 -6 22 -15 22 -9
0 -15 -9 -15 -22z"/>
<path d="M1017 1120 c9 -17 28 -43 41 -58 13 -15 6 -1 -14 31 -38 59 -58 79
-27 27z"/>
<path d="M886 1105 c-22 -22 -20 -35 4 -35 23 0 38 26 23 41 -7 7 -16 5 -27
-6z"/>
<path d="M935 1061 c3 -5 1 -12 -5 -16 -5 -3 -10 -11 -10 -16 0 -5 12 -2 26 7
19 13 22 19 12 25 -18 12 -31 11 -23 0z"/>
<path d="M1140 1053 c0 -18 53 -93 65 -93 24 0 18 13 -25 58 -22 22 -40 38
-40 35z"/>
<path d="M1102 1022 c-10 -7 -8 -12 5 -24 38 -32 45 -32 29 1 -18 35 -17 34
-34 23z"/>
<path d="M950 1008 c0 -4 14 -14 30 -23 17 -9 30 -20 30 -25 0 -18 18 -10 23
10 4 16 0 20 -20 20 -18 0 -24 4 -19 15 4 11 -1 14 -19 13 -14 -1 -25 -6 -25
-10z"/>
<path d="M1051 953 c2 -27 15 -42 28 -33 12 7 12 11 2 24 -14 17 -32 21 -30 9z"/>
<path d="M1096 915 c-5 -15 2 -25 20 -25 20 0 24 28 4 33 -10 3 -21 -1 -24 -8z"/>
<path d="M2363 1613 c-18 -6 -16 -43 1 -43 8 0 17 3 19 8 8 13 -8 39 -20 35z"/>
<path d="M2453 1613 c3 -5 -1 -21 -8 -38 l-14 -30 6 35 c3 27 2 31 -6 20 -13
-18 -15 -73 -2 -66 5 3 11 -1 15 -9 7 -19 30 -19 45 -1 10 12 8 13 -10 9 -21
-6 -22 -4 -17 40 3 26 1 47 -4 47 -5 0 -7 -3 -5 -7z"/>
<path d="M2333 1484 c-9 -25 12 -38 31 -19 9 9 16 21 16 26 0 15 -40 10 -47
-7z"/>
<path d="M2332 1419 c4 -29 25 -36 23 -7 -1 12 -7 24 -14 26 -8 3 -12 -4 -9
-19z"/>
<path d="M2300 1370 c0 -10 24 -30 35 -30 6 0 11 9 12 19 1 14 -5 18 -23 17
-13 0 -24 -3 -24 -6z"/>
<path d="M2257 1248 c-18 -31 -13 -58 9 -58 17 0 18 22 2 38 -9 9 -7 12 9 12
11 0 24 7 27 16 9 22 8 23 -12 21 -11 0 -26 -14 -35 -29z"/>
<path d="M2220 1175 c0 -8 0 -18 -1 -22 0 -4 4 -9 10 -11 6 -2 11 8 11 22 0
14 -4 26 -10 26 -5 0 -10 -7 -10 -15z"/>
<path d="M2417 1143 c-40 -63 -58 -103 -47 -103 5 0 26 32 45 70 38 76 39 92
2 33z"/>
<path d="M2170 1111 c0 -14 5 -18 20 -14 11 3 20 12 20 19 0 8 -9 14 -20 14
-13 0 -20 -7 -20 -19z"/>
<path d="M2125 1070 c-8 -13 3 -30 20 -30 20 0 30 21 14 31 -18 11 -26 11 -34
-1z"/>
<path d="M2097 1043 c-16 -15 -6 -43 14 -43 15 0 19 4 15 16 -3 9 -6 20 -6 25
0 11 -14 12 -23 2z"/>
<path d="M1925 1015 c-10 -13 -23 -21 -27 -19 -9 6 -63 -74 -55 -83 9 -9 32
13 73 69 38 51 44 73 9 33z"/>
<path d="M1821 995 c-25 -42 -25 -45 -8 -45 12 0 41 69 33 77 -2 2 -13 -12
-25 -32z"/>
<path d="M2046 975 c-3 -8 -15 -15 -27 -15 -15 0 -19 -4 -15 -16 3 -9 6 -18 6
-20 0 -2 7 -4 15 -4 8 0 15 5 15 10 0 6 12 22 28 35 26 23 26 24 6 25 -12 0
-24 -7 -28 -15z"/>
<path d="M1480 951 c0 -12 4 -21 9 -21 4 0 7 -12 4 -27 -3 -26 -3 -27 6 -5 11
23 31 30 31 10 0 -9 3 -9 12 0 15 15 42 16 32 1 -4 -8 0 -9 15 -4 17 5 21 2
21 -14 0 -24 7 -25 45 -11 l26 10 -23 24 c-16 16 -27 20 -35 14 -9 -7 -15 -5
-19 6 -3 9 -10 16 -16 16 -5 0 -6 -4 -3 -10 4 -6 -7 -10 -24 -10 -21 0 -31 5
-31 15 0 8 -4 15 -9 15 -5 0 -16 3 -25 6 -12 4 -16 0 -16 -15z"/>
<path d="M1379 929 c-20 -21 -12 -35 24 -44 22 -6 26 -4 21 9 -4 10 0 18 10
22 9 3 16 12 16 20 0 17 -12 18 -28 2 -9 -9 -15 -9 -20 -2 -5 6 -13 4 -23 -7z"/>
<path d="M1320 910 c0 -5 -6 -10 -14 -10 -19 0 -40 -26 -27 -34 5 -4 12 -2 16
4 3 5 14 10 25 10 10 0 21 7 24 16 9 22 8 24 -9 24 -8 0 -15 -4 -15 -10z"/>
<path d="M1707 912 c-8 -18 -7 -71 2 -76 6 -4 8 -13 5 -20 -3 -8 -1 -17 5 -21
7 -3 11 2 11 14 0 11 5 32 12 46 10 22 8 28 -10 45 -11 11 -23 16 -25 12z"/>
<path d="M1135 810 c-17 -7 -17 -9 -3 -9 21 -1 13 -31 -8 -31 -8 0 -14 -7 -14
-15 0 -9 9 -15 23 -15 44 0 82 70 42 75 -11 2 -29 -1 -40 -5z"/>
<path d="M1260 421 c0 -12 4 -21 10 -21 5 0 7 -6 4 -13 -7 -19 30 -64 40 -49
4 7 2 12 -4 12 -7 0 -10 7 -6 15 3 8 0 15 -7 15 -7 0 -13 12 -12 27 0 14 -6
28 -12 30 -8 3 -13 -4 -13 -16z"/>
<path d="M1500 233 c0 -15 56 -18 65 -3 3 6 3 10 -2 11 -50 5 -63 3 -63 -8z"/>
<path d="M1511 513 c-1 -6 -4 -18 -7 -26 -10 -27 30 -25 44 2 14 28 9 39 -12
22 -11 -9 -15 -9 -19 1 -4 9 -6 9 -6 1z"/>
<path d="M1543 435 c-13 -29 -3 -33 20 -7 20 22 21 32 5 32 -7 0 -18 -11 -25
-25z"/>
<path d="M1460 439 c0 -15 19 -49 29 -49 4 0 8 7 8 15 0 8 -5 15 -10 15 -5 0
-4 7 3 15 10 13 9 15 -9 15 -11 0 -21 -5 -21 -11z"/>
<path d="M2712 2836 c-39 -41 -46 -67 -12 -45 8 5 11 9 6 9 -5 0 5 14 23 30
17 17 31 35 31 40 0 14 -1 14 -48 -34z"/>
<path d="M210 2703 c0 -24 5 -43 10 -43 13 0 13 50 0 70 -7 11 -10 4 -10 -27z"/>
<path d="M2873 2657 c-30 -20 -48 -45 -40 -53 2 -2 15 8 29 21 14 13 29 21 32
18 3 -4 6 1 6 11 0 9 5 14 10 11 6 -3 10 -1 10 4 0 16 -11 13 -47 -12z"/>
<path d="M2770 2579 c0 -7 8 -18 18 -25 10 -8 12 -13 5 -14 -8 0 -10 -7 -6
-17 6 -16 5 -17 -12 -3 -16 13 -18 13 -13 0 2 -8 14 -16 25 -18 26 -4 38 35
18 58 -8 9 -12 20 -8 23 3 4 -1 7 -10 7 -9 0 -17 -5 -17 -11z"/>
<path d="M2849 2515 c-3 -11 1 -32 8 -48 13 -26 14 -27 38 -11 32 21 32 28 0
20 -20 -5 -23 -3 -18 11 4 10 2 14 -5 9 -6 -4 -12 3 -14 16 -4 21 -4 22 -9 3z"/>
<path d="M2951 2431 c-9 -6 -10 -11 -2 -15 6 -4 11 -20 11 -37 0 -47 15 -33
16 16 2 46 -1 51 -25 36z"/>
<path d="M2910 2425 c0 -2 9 -19 20 -37 22 -36 27 -25 8 17 -10 21 -28 35 -28
20z"/>
<path d="M25 2280 c-3 -5 -3 -14 0 -20 3 -5 -1 -10 -9 -10 -21 0 -20 -10 2
-26 15 -12 15 -15 2 -24 -13 -9 -13 -10 0 -10 12 -1 11 -3 -2 -11 -10 -5 -18
-15 -18 -22 0 -8 3 -9 8 -1 4 6 15 13 25 17 13 5 16 13 12 30 -5 17 -2 26 10
31 15 5 14 9 -6 26 -20 16 -20 19 -5 13 13 -4 17 -3 12 5 -9 15 -23 15 -31 2z"/>
<path d="M120 1874 c0 -8 5 -12 10 -9 6 3 10 1 10 -4 0 -6 9 -11 20 -11 13 0
18 -5 14 -15 -9 -24 2 -18 21 11 l17 27 -31 -5 c-19 -3 -32 0 -35 9 -7 18 -26
16 -26 -3z"/>
<path d="M132 1723 c-9 -3 -11 -16 -6 -39 8 -44 0 -72 -31 -108 -26 -31 -32
-46 -15 -46 6 0 10 5 10 10 0 6 11 20 25 32 27 23 45 73 45 126 0 32 -3 35
-28 25z"/>
<path d="M190 1696 c0 -13 -3 -31 -6 -40 -3 -9 -2 -16 4 -16 9 0 32 51 32 71
0 5 -7 9 -15 9 -9 0 -15 -9 -15 -24z"/>
<path d="M2821 1672 c-16 -29 -14 -53 4 -46 26 10 34 -4 23 -44 -5 -20 -16
-44 -24 -53 -8 -8 -14 -19 -14 -22 0 -13 51 -7 80 8 42 22 39 2 -8 -60 -45
-60 -95 -95 -134 -95 -17 0 -27 -4 -23 -10 18 -29 118 14 163 69 36 45 74 127
70 149 -2 11 -9 9 -30 -8 -16 -12 -41 -25 -57 -30 l-29 -8 14 34 c19 45 18 84
-2 84 -8 0 -12 4 -9 10 3 5 2 17 -3 27 -9 15 -11 14 -21 -5z"/>
<path d="M303 1615 c-8 -21 9 -37 30 -29 22 8 21 16 -3 32 -17 10 -21 10 -27
-3z"/>
<path d="M176 1568 c-9 -50 1 -115 14 -101 5 4 5 40 1 78 l-7 70 -8 -47z"/>
<path d="M320 1533 c0 -40 26 -180 46 -249 77 -267 264 -515 502 -665 62 -40
31 -2 -35 42 -140 92 -297 275 -381 444 -58 117 -112 318 -112 416 0 21 -4 39
-10 39 -5 0 -10 -12 -10 -27z"/>
<path d="M166 1428 c-3 -7 -7 -45 -10 -84 -3 -39 -9 -85 -12 -103 -6 -29 -4
-33 12 -29 15 2 20 13 22 50 l3 47 34 -22 c34 -22 45 -42 45 -85 0 -21 24 -41
35 -30 3 3 -2 27 -10 54 -17 57 -20 157 -5 185 6 10 7 19 2 19 -17 0 -32 -25
-32 -52 0 -32 -7 -34 -38 -12 -14 10 -22 25 -22 45 0 29 -17 41 -24 17z m83
-124 c3 -15 -1 -15 -30 4 -19 12 -36 29 -38 38 -3 15 1 15 30 -4 19 -12 36
-29 38 -38z"/>
<path d="M2825 1324 c-11 -9 -29 -22 -39 -30 -11 -7 -17 -16 -14 -20 8 -7 88
45 88 57 0 13 -12 10 -35 -7z"/>
<path d="M2750 1253 c0 -16 22 -32 36 -26 35 13 61 -56 32 -85 -20 -20 -64
-14 -81 11 -11 15 -16 17 -16 7 -1 -36 45 -65 81 -51 71 27 73 135 2 137 -16
0 -35 4 -42 8 -7 4 -12 3 -12 -1z"/>
<path d="M192 1143 l-11 -38 5 35 c6 43 -11 28 -19 -17 -5 -25 -3 -33 8 -33 8
0 15 -4 15 -10 0 -5 11 -10 25 -10 14 0 25 5 25 10 0 6 -7 10 -16 10 -14 0
-16 7 -11 45 8 55 -5 59 -21 8z"/>
<path d="M335 1154 c-8 -9 -15 -19 -15 -23 0 -9 22 -31 31 -31 15 0 38 31 33
45 -9 21 -32 26 -49 9z"/>
<path d="M260 1029 c0 -46 5 -63 29 -95 55 -75 94 -95 136 -68 25 16 30 39 19
80 -4 16 -11 20 -26 16 -20 -5 -20 -6 -4 -18 28 -20 17 -58 -17 -62 -23 -3
-37 5 -68 39 -21 23 -39 47 -39 54 0 17 64 75 83 75 9 0 21 8 26 18 9 17 4 18
-65 18 l-74 -1 0 -56z m80 28 c0 -2 -13 -16 -30 -32 l-30 -29 0 32 c0 29 3 32
30 32 17 0 30 -1 30 -3z"/>
<path d="M2610 1066 c0 -7 9 -16 20 -19 17 -4 20 -14 20 -66 0 -34 -4 -61 -9
-61 -18 0 -33 31 -28 59 7 31 -7 51 -35 51 -22 0 -25 -48 -4 -56 8 -3 17 -16
20 -30 4 -14 16 -26 32 -30 23 -6 25 -10 22 -52 -2 -29 1 -47 10 -49 8 -3 12
9 12 41 0 40 4 48 25 58 17 8 28 24 36 52 6 23 17 46 25 53 11 8 12 13 4 18
-18 11 -47 -23 -54 -64 -3 -22 -13 -41 -22 -45 -14 -5 -16 2 -12 64 3 65 2 71
-14 67 -11 -3 -18 0 -18 9 0 8 -7 14 -15 14 -8 0 -15 -6 -15 -14z"/>
<path d="M410 820 c0 -16 50 -83 57 -77 6 7 -23 61 -41 76 -13 11 -16 11 -16
1z"/>
<path d="M2412 804 c-14 -10 -21 -22 -17 -31 3 -9 0 -22 -6 -29 -9 -11 -5 -16
16 -24 14 -5 30 -10 35 -10 5 0 0 -19 -10 -42 -11 -24 -20 -53 -20 -65 0 -12
-6 -27 -12 -32 -58 -47 -71 -60 -60 -61 7 0 30 12 52 26 28 19 40 34 40 50 0
23 27 102 40 117 4 4 19 -2 34 -14 20 -16 27 -28 23 -46 -3 -15 0 -22 7 -20 6
2 11 19 11 38 0 29 -5 36 -32 49 -40 18 -42 30 -6 30 25 0 26 1 8 14 -16 12
-17 16 -6 30 7 8 11 21 9 28 -3 8 -11 2 -22 -15 -19 -28 -68 -38 -81 -17 -6
10 7 14 34 11 14 -3 11 21 -5 26 -5 2 -20 -4 -32 -13z"/>
<path d="M552 803 c-52 -5 -52 -26 -1 -29 19 -1 41 -3 49 -5 9 -3 16 5 18 19
2 14 -1 21 -10 20 -7 -1 -32 -3 -56 -5z"/>
<path d="M2593 788 c-23 -26 -36 -58 -24 -58 11 0 47 41 54 63 9 24 -6 21 -30
-5z"/>
<path d="M496 763 c-3 -4 -6 -14 -6 -24 0 -12 6 -16 20 -12 24 6 82 -28 104
-62 22 -33 21 -34 -19 -25 -52 12 -129 -10 -133 -38 -4 -26 1 -27 33 -6 19 12
42 15 90 12 l65 -4 0 28 c0 20 -12 42 -37 68 -37 39 -104 75 -117 63z"/>
<path d="M780 610 c-12 -12 -33 -20 -54 -20 -36 0 -87 -32 -69 -43 6 -4 16 0
23 8 17 21 69 19 108 -5 43 -26 40 -34 -8 -27 -22 3 -40 1 -40 -3 0 -5 21 -10
48 -12 l47 -3 -34 -32 c-26 -26 -42 -33 -73 -33 -38 0 -40 1 -34 26 6 22 4 25
-9 20 -9 -3 -19 -6 -21 -6 -14 0 0 -42 18 -54 28 -20 48 -20 98 0 38 15 70 57
70 92 0 8 8 20 17 27 15 11 16 16 3 41 l-14 29 -4 -32 c-4 -37 -19 -42 -58
-16 -25 16 -25 17 -8 30 10 7 27 13 38 13 17 0 18 2 6 10 -21 14 -27 13 -50
-10z"/>
<path d="M1030 550 c0 -6 -4 -9 -8 -6 -14 8 -28 -28 -22 -59 l5 -29 23 28 c23
30 29 61 12 71 -5 3 -10 1 -10 -5z"/>
<path d="M2267 542 c-24 -26 -47 -87 -47 -123 0 -29 2 -31 28 -23 15 4 44 7
65 5 37 -2 50 12 21 23 -9 3 -32 6 -51 6 -35 0 -35 1 -29 33 3 17 15 44 26 59
11 15 20 30 20 33 0 11 -18 4 -33 -13z"/>
<path d="M2280 480 c-6 -12 -9 -24 -7 -27 9 -8 48 18 44 30 -6 20 -25 19 -37
-3z"/>
<path d="M1956 455 c-9 -23 -8 -25 9 -25 13 0 12 -3 -2 -19 -9 -11 -22 -17
-29 -14 -9 3 -14 -2 -14 -12 0 -11 5 -15 15 -11 12 4 13 2 7 -12 -5 -9 -7 -23
-4 -31 2 -7 -1 -17 -8 -21 -21 -13 -2 -32 20 -20 14 7 18 21 18 55 -1 29 5 52
15 63 19 21 23 57 6 46 -6 -3 -15 -1 -19 6 -5 8 -9 7 -14 -5z"/>
<path d="M840 411 c0 -5 14 -14 30 -20 33 -11 37 -7 16 15 -16 16 -46 19 -46
5z"/>
<path d="M1805 370 c-11 -5 -14 -9 -7 -9 20 -1 14 -31 -15 -78 -24 -37 -32
-43 -52 -38 -21 5 -23 4 -12 -9 7 -8 10 -19 7 -25 -3 -5 7 -12 23 -16 15 -3
37 -17 49 -29 17 -20 18 -27 8 -47 -6 -13 -20 -24 -30 -24 -20 0 -48 -33 -40
-46 8 -14 44 -10 44 4 0 7 14 26 30 42 17 17 28 35 25 44 -5 12 -3 12 12 0 15
-12 16 -12 10 4 -4 10 -7 25 -7 32 0 8 -11 12 -31 11 -38 -3 -61 29 -29 39 11
4 27 22 35 42 17 41 19 56 4 31 -5 -10 -15 -18 -20 -18 -6 0 -7 6 -2 13 4 6 8
18 9 25 4 21 16 29 21 14 4 -10 8 -10 19 -1 10 8 11 16 3 30 -10 20 -23 22
-54 9z"/>
<path d="M1890 260 c-2 -18 -4 -20 -7 -7 -2 9 -8 17 -13 17 -10 0 -3 -28 13
-47 6 -9 5 -18 -3 -28 -7 -9 -11 -18 -8 -20 9 -10 58 55 58 77 -1 22 -1 22
-15 5 -13 -18 -14 -17 -18 5 -4 23 -4 23 -7 -2z"/>
<path d="M1285 231 c-11 -5 -23 -7 -27 -5 -4 3 -10 -1 -14 -7 -5 -8 -3 -9 6
-4 9 5 10 2 6 -13 -4 -11 -2 -23 4 -27 5 -3 10 -14 10 -24 0 -27 26 -44 66
-43 44 2 80 25 62 40 -7 5 -22 12 -33 14 -11 1 -25 9 -31 17 -8 10 -13 11 -18
3 -4 -7 3 -17 18 -24 27 -12 35 -28 13 -28 -19 0 -57 29 -57 44 0 7 9 25 21
40 21 27 13 32 -26 17z"/>
<path d="M1687 201 c3 -14 -2 -21 -19 -26 -12 -4 -32 -14 -43 -22 -20 -15 -19
-15 3 -8 16 5 22 2 22 -9 0 -23 21 -20 27 4 3 11 10 20 15 20 5 0 6 -5 2 -12
-5 -8 -2 -9 11 -5 9 4 24 2 32 -5 12 -10 12 -7 2 18 -12 27 -42 64 -53 64 -2
0 -2 -9 1 -19z"/>
<path d="M1216 110 c-21 -7 -32 -50 -16 -60 17 -11 60 1 60 15 0 8 3 21 7 31
5 12 3 15 -6 9 -7 -4 -16 -3 -20 2 -3 6 -15 7 -25 3z"/>
<path d="M1645 89 c-4 -6 0 -9 11 -7 23 4 32 -36 13 -58 -17 -21 -5 -28 23
-12 30 17 37 28 30 47 -13 34 -63 54 -77 30z"/>
<path d="M1296 67 c-13 -9 -16 -20 -11 -40 9 -34 25 -35 25 -1 0 18 4 25 14
21 8 -3 27 -2 43 3 25 7 26 8 5 9 -13 1 -31 5 -41 11 -13 6 -24 5 -35 -3z"/>
</g>
</svg>
